<svg id="Layer_1" data-name="Layer 1" xmlns="http://www.w3.org/2000/svg" xmlns:xlink="http://www.w3.org/1999/xlink" viewBox="0 0 2560 720"><defs><style>.cls-1{fill:none;}.cls-2{fill:#045125;}.cls-3{clip-path:url(#clip-path);}.cls-4{fill:#ff7c06;}.cls-5{fill:#cc640e;}.cls-6{fill:#f42278;}.cls-7{fill:#00c9ff;}.cls-8{clip-path:url(#clip-path-2);}.cls-9{fill:#57d4ff;}.cls-10{fill:#d1cfd1;}.cls-11{fill:#f915b9;}.cls-12,.cls-19{fill:#fff;}.cls-13{fill:#f7f12f;}.cls-14{fill:#285c14;}.cls-15{fill:#e87400;}.cls-16{fill:#0e3ed8;}.cls-17{fill:#014226;}.cls-18{fill:#056658;}.cls-19{stroke:#0e3ed8;stroke-width:9.03px;}.cls-19,.cls-21{stroke-miterlimit:10;}.cls-20{fill:#f7652b;}.cls-21{fill:#77620a;stroke:#f70864;stroke-width:38.85px;}.cls-22{fill:#1b8fdd;}.cls-23{fill:#f20fdd;}.cls-24{fill:#fa0;}</style><clipPath id="clip-path"><rect class="cls-1" width="2560" height="720"/></clipPath><clipPath id="clip-path-2"><rect class="cls-1" x="1538.8" y="-75.61" width="513.67" height="722.67"/></clipPath></defs><title>1212_Campaign_banner_desktop copy</title><circle class="cls-2" cx="544.75" cy="18.41" r="11.04"/><circle class="cls-2" cx="608.99" cy="18.41" r="11.04"/><circle class="cls-2" cx="673.23" cy="18.41" r="11.04"/><circle class="cls-2" cx="737.47" cy="18.41" r="11.04"/><circle class="cls-2" cx="801.7" cy="18.41" r="11.04"/><circle class="cls-2" cx="865.94" cy="18.41" r="11.04"/><circle class="cls-2" cx="930.18" cy="18.41" r="11.04"/><circle class="cls-2" cx="994.42" cy="18.41" r="11.04"/><g class="cls-3"><rect class="cls-4" x="-2.32" y="-1.33" width="243.27" height="921.77"/><rect class="cls-5" x="239.57" y="-1.33" width="243.27" height="921.77"/><path class="cls-6" d="M1043.35-12.94h0a16.89,16.89,0,0,0-13.53-6.78,16.88,16.88,0,0,0-13.52,6.78h0c-8.47,10.16-18.63,9-18.63,9s-10.16,1.19-18.63-9h0a16.89,16.89,0,0,0-13.53-6.78,16.89,16.89,0,0,0-13.53,6.78h0c-8.47,10.16-18.63,9-18.63,9s-10.17,1.19-18.64-9h0a16.89,16.89,0,0,0-13.53-6.78,16.92,16.92,0,0,0-13.53,6.78h0C879-2.78,868.88-4,868.88-4s-10.16,1.19-18.63-9h0a16.89,16.89,0,0,0-13.53-6.78,16.89,16.89,0,0,0-13.53,6.78h0c-8.47,10.16-18.63,9-18.63,9s-10.17,1.19-18.64-9h0a16.89,16.89,0,0,0-13.53-6.78,16.9,16.9,0,0,0-13.53,6.78h0c-8.47,10.16-18.63,9-18.63,9s-10.16,1.19-18.63-9h0A16.9,16.9,0,0,0,708-19.72a16.89,16.89,0,0,0-13.53,6.78h0C686-2.78,675.78-4,675.78-4s-10.16,1.19-18.63-9h0a16.89,16.89,0,0,0-13.53-6.78,16.9,16.9,0,0,0-13.53,6.78h0c-8.47,10.16-18.63,9-18.63,9s-10.16,1.19-18.63-9h0a16.92,16.92,0,0,0-13.53-6.78,16.89,16.89,0,0,0-13.53,6.78h0c-8.47,10.16-18.64,9-18.64,9s-10.16,1.19-18.63-9h0a16.89,16.89,0,0,0-13.53-6.78,16.89,16.89,0,0,0-13.53,6.78h0c-8.47,10.16-18.63,9-18.63,9V59.89H1062V-4S1051.81-2.78,1043.35-12.94Z"/><path class="cls-2" d="M1043.35,40.25h0a16.9,16.9,0,0,0-27,0h0c-8.47,10.17-18.63,9-18.63,9s-10.16,1.19-18.63-9h0a16.91,16.91,0,0,0-27.06,0h0c-8.47,10.17-18.63,9-18.63,9s-10.17,1.19-18.64-9h0a16.91,16.91,0,0,0-27.06,0h0c-8.47,10.17-18.63,9-18.63,9s-10.16,1.19-18.63-9h0a16.91,16.91,0,0,0-27.06,0h0c-8.47,10.17-18.63,9-18.63,9s-10.17,1.19-18.64-9h0a16.91,16.91,0,0,0-27.06,0h0c-8.47,10.17-18.63,9-18.63,9s-10.16,1.19-18.63-9h0a16.91,16.91,0,0,0-27.06,0h0c-8.47,10.17-18.64,9-18.64,9s-10.16,1.19-18.63-9h0a16.91,16.91,0,0,0-27.06,0h0c-8.47,10.17-18.63,9-18.63,9s-10.16,1.19-18.63-9h0a16.91,16.91,0,0,0-27.06,0h0c-8.47,10.17-18.64,9-18.64,9s-10.16,1.19-18.63-9h0a16.91,16.91,0,0,0-27.06,0h0c-8.47,10.17-18.63,9-18.63,9v63.86H1062V49.23S1051.81,50.42,1043.35,40.25Z"/><path class="cls-6" d="M1043.35,93.45h0a16.88,16.88,0,0,0-27,0h0c-8.47,10.16-18.63,9-18.63,9s-10.16,1.18-18.63-9h0a16.89,16.89,0,0,0-27.06,0h0c-8.47,10.16-18.63,9-18.63,9s-10.17,1.18-18.64-9h0a16.89,16.89,0,0,0-27.06,0h0c-8.47,10.16-18.63,9-18.63,9s-10.16,1.18-18.63-9h0a16.89,16.89,0,0,0-27.06,0h0c-8.47,10.16-18.63,9-18.63,9s-10.17,1.18-18.64-9h0a16.89,16.89,0,0,0-27.06,0h0c-8.47,10.16-18.63,9-18.63,9s-10.16,1.18-18.63-9h0a16.89,16.89,0,0,0-27.06,0h0c-8.47,10.16-18.64,9-18.64,9s-10.16,1.18-18.63-9h0a16.89,16.89,0,0,0-27.06,0h0c-8.47,10.16-18.63,9-18.63,9s-10.16,1.18-18.63-9h0a16.89,16.89,0,0,0-27.06,0h0c-8.47,10.16-18.64,9-18.64,9s-10.16,1.18-18.63-9h0a16.89,16.89,0,0,0-27.06,0h0c-8.47,10.16-18.63,9-18.63,9v63.85H1062V102.43S1051.81,103.61,1043.35,93.45Z"/><path class="cls-2" d="M1043.35,146.65h0a16.88,16.88,0,0,0-27,0h0c-8.47,10.16-18.63,9-18.63,9s-10.16,1.19-18.63-9h0a16.89,16.89,0,0,0-27.06,0h0c-8.47,10.16-18.63,9-18.63,9s-10.17,1.19-18.64-9h0a16.89,16.89,0,0,0-27.06,0h0c-8.47,10.16-18.63,9-18.63,9s-10.16,1.19-18.63-9h0a16.89,16.89,0,0,0-27.06,0h0c-8.47,10.16-18.63,9-18.63,9s-10.17,1.19-18.64-9h0a16.89,16.89,0,0,0-27.06,0h0c-8.47,10.16-18.63,9-18.63,9s-10.16,1.19-18.63-9h0a16.89,16.89,0,0,0-27.06,0h0c-8.47,10.16-18.64,9-18.64,9s-10.16,1.19-18.63-9h0a16.89,16.89,0,0,0-27.06,0h0c-8.47,10.16-18.63,9-18.63,9s-10.16,1.19-18.63-9h0a16.89,16.89,0,0,0-27.06,0h0c-8.47,10.16-18.64,9-18.64,9s-10.16,1.19-18.63-9h0a16.89,16.89,0,0,0-27.06,0h0c-8.47,10.16-18.63,9-18.63,9v63.86H1062V155.62S1051.81,156.81,1043.35,146.65Z"/><path class="cls-6" d="M1043.35,199.84h0a16.9,16.9,0,0,0-27,0h0c-8.47,10.17-18.63,9-18.63,9s-10.16,1.19-18.63-9h0a16.91,16.91,0,0,0-27.06,0h0c-8.47,10.17-18.63,9-18.63,9s-10.17,1.19-18.64-9h0a16.91,16.91,0,0,0-27.06,0h0c-8.47,10.17-18.63,9-18.63,9s-10.16,1.19-18.63-9h0a16.91,16.91,0,0,0-27.06,0h0c-8.47,10.17-18.63,9-18.63,9s-10.17,1.19-18.64-9h0a16.91,16.91,0,0,0-27.06,0h0c-8.47,10.17-18.63,9-18.63,9s-10.16,1.19-18.63-9h0a16.91,16.91,0,0,0-27.06,0h0c-8.47,10.17-18.64,9-18.64,9s-10.16,1.19-18.63-9h0a16.91,16.91,0,0,0-27.06,0h0c-8.47,10.17-18.63,9-18.63,9s-10.16,1.19-18.63-9h0a16.91,16.91,0,0,0-27.06,0h0c-8.47,10.17-18.64,9-18.64,9s-10.16,1.19-18.63-9h0a16.91,16.91,0,0,0-27.06,0h0c-8.47,10.17-18.63,9-18.63,9v63.86H1062V208.82S1051.81,210,1043.35,199.84Z"/><path class="cls-2" d="M1043.35,253h0a16.88,16.88,0,0,0-27,0h0c-8.47,10.16-18.63,9-18.63,9s-10.16,1.19-18.63-9h0a16.89,16.89,0,0,0-27.06,0h0c-8.47,10.16-18.63,9-18.63,9s-10.17,1.19-18.64-9h0a16.89,16.89,0,0,0-27.06,0h0c-8.47,10.16-18.63,9-18.63,9s-10.16,1.19-18.63-9h0a16.89,16.89,0,0,0-27.06,0h0c-8.47,10.16-18.63,9-18.63,9s-10.17,1.19-18.64-9h0a16.89,16.89,0,0,0-27.06,0h0c-8.47,10.16-18.63,9-18.63,9s-10.16,1.19-18.63-9h0a16.89,16.89,0,0,0-27.06,0h0c-8.47,10.16-18.64,9-18.64,9s-10.16,1.19-18.63-9h0a16.89,16.89,0,0,0-27.06,0h0c-8.47,10.16-18.63,9-18.63,9s-10.16,1.19-18.63-9h0a16.89,16.89,0,0,0-27.06,0h0c-8.47,10.16-18.64,9-18.64,9s-10.16,1.19-18.63-9h0a16.89,16.89,0,0,0-27.06,0h0c-8.47,10.16-18.63,9-18.63,9v63.86H1062V262S1051.81,263.2,1043.35,253Z"/><path class="cls-6" d="M1043.35,306.24h0a16.88,16.88,0,0,0-27,0h0c-8.47,10.16-18.63,9-18.63,9s-10.16,1.19-18.63-9h0a16.89,16.89,0,0,0-27.06,0h0c-8.47,10.16-18.63,9-18.63,9s-10.17,1.19-18.64-9h0a16.89,16.89,0,0,0-27.06,0h0c-8.47,10.16-18.63,9-18.63,9s-10.16,1.19-18.63-9h0a16.89,16.89,0,0,0-27.06,0h0c-8.47,10.16-18.63,9-18.63,9s-10.17,1.19-18.64-9h0a16.89,16.89,0,0,0-27.06,0h0c-8.47,10.16-18.63,9-18.63,9s-10.16,1.19-18.63-9h0a16.89,16.89,0,0,0-27.06,0h0c-8.47,10.16-18.64,9-18.64,9s-10.16,1.19-18.63-9h0a16.89,16.89,0,0,0-27.06,0h0c-8.47,10.16-18.63,9-18.63,9s-10.16,1.19-18.63-9h0a16.89,16.89,0,0,0-27.06,0h0c-8.47,10.16-18.64,9-18.64,9s-10.16,1.19-18.63-9h0a16.89,16.89,0,0,0-27.06,0h0c-8.47,10.16-18.63,9-18.63,9v63.86H1062V315.21S1051.81,316.4,1043.35,306.24Z"/><path class="cls-2" d="M1043.35,359.43h0a16.9,16.9,0,0,0-27,0h0c-8.47,10.17-18.63,9-18.63,9s-10.16,1.19-18.63-9h0a16.91,16.91,0,0,0-27.06,0h0c-8.47,10.17-18.63,9-18.63,9s-10.17,1.19-18.64-9h0a16.91,16.91,0,0,0-27.06,0h0c-8.47,10.17-18.63,9-18.63,9s-10.16,1.19-18.63-9h0a16.91,16.91,0,0,0-27.06,0h0c-8.47,10.17-18.63,9-18.63,9s-10.17,1.19-18.64-9h0a16.91,16.91,0,0,0-27.06,0h0c-8.47,10.17-18.63,9-18.63,9s-10.16,1.19-18.63-9h0a16.91,16.91,0,0,0-27.06,0h0c-8.47,10.17-18.64,9-18.64,9s-10.16,1.19-18.63-9h0a16.91,16.91,0,0,0-27.06,0h0c-8.47,10.17-18.63,9-18.63,9s-10.16,1.19-18.63-9h0a16.91,16.91,0,0,0-27.06,0h0c-8.47,10.17-18.64,9-18.64,9s-10.16,1.19-18.63-9h0a16.91,16.91,0,0,0-27.06,0h0c-8.47,10.17-18.63,9-18.63,9v63.86H1062V368.41S1051.81,369.6,1043.35,359.43Z"/><path class="cls-6" d="M1043.35,412.63h0a16.88,16.88,0,0,0-27,0h0c-8.47,10.16-18.63,9-18.63,9s-10.16,1.19-18.63-9h0a16.89,16.89,0,0,0-27.06,0h0c-8.47,10.16-18.63,9-18.63,9s-10.17,1.19-18.64-9h0a16.89,16.89,0,0,0-27.06,0h0c-8.47,10.16-18.63,9-18.63,9s-10.16,1.19-18.63-9h0a16.89,16.89,0,0,0-27.06,0h0c-8.47,10.16-18.63,9-18.63,9s-10.17,1.19-18.64-9h0a16.89,16.89,0,0,0-27.06,0h0c-8.47,10.16-18.63,9-18.63,9s-10.16,1.19-18.63-9h0a16.89,16.89,0,0,0-27.06,0h0c-8.47,10.16-18.64,9-18.64,9s-10.16,1.19-18.63-9h0a16.89,16.89,0,0,0-27.06,0h0c-8.47,10.16-18.63,9-18.63,9s-10.16,1.19-18.63-9h0a16.89,16.89,0,0,0-27.06,0h0c-8.47,10.16-18.64,9-18.64,9s-10.16,1.19-18.63-9h0a16.89,16.89,0,0,0-27.06,0h0c-8.47,10.16-18.63,9-18.63,9v63.86H1062V421.6S1051.81,422.79,1043.35,412.63Z"/><path class="cls-2" d="M1043.35,465.83h0a16.88,16.88,0,0,0-27,0h0c-8.47,10.16-18.63,9-18.63,9s-10.16,1.19-18.63-9h0a16.89,16.89,0,0,0-27.06,0h0c-8.47,10.16-18.63,9-18.63,9s-10.17,1.19-18.64-9h0a16.89,16.89,0,0,0-27.06,0h0c-8.47,10.16-18.63,9-18.63,9s-10.16,1.19-18.63-9h0a16.89,16.89,0,0,0-27.06,0h0c-8.47,10.16-18.63,9-18.63,9s-10.17,1.19-18.64-9h0a16.89,16.89,0,0,0-27.06,0h0c-8.47,10.16-18.63,9-18.63,9s-10.16,1.19-18.63-9h0a16.89,16.89,0,0,0-27.06,0h0c-8.47,10.16-18.64,9-18.64,9s-10.16,1.19-18.63-9h0a16.89,16.89,0,0,0-27.06,0h0c-8.47,10.16-18.63,9-18.63,9s-10.16,1.19-18.63-9h0a16.89,16.89,0,0,0-27.06,0h0c-8.47,10.16-18.64,9-18.64,9s-10.16,1.19-18.63-9h0a16.89,16.89,0,0,0-27.06,0h0c-8.47,10.16-18.63,9-18.63,9v63.86H1062V474.8S1051.81,476,1043.35,465.83Z"/><path class="cls-6" d="M1043.35,519h0a16.9,16.9,0,0,0-27,0h0c-8.47,10.16-18.63,9-18.63,9s-10.16,1.18-18.63-9h0a16.91,16.91,0,0,0-27.06,0h0c-8.47,10.16-18.63,9-18.63,9s-10.17,1.18-18.64-9h0a16.91,16.91,0,0,0-27.06,0h0c-8.47,10.16-18.63,9-18.63,9s-10.16,1.18-18.63-9h0a16.91,16.91,0,0,0-27.06,0h0c-8.47,10.16-18.63,9-18.63,9s-10.17,1.18-18.64-9h0a16.91,16.91,0,0,0-27.06,0h0c-8.47,10.16-18.63,9-18.63,9s-10.16,1.18-18.63-9h0a16.91,16.91,0,0,0-27.06,0h0c-8.47,10.16-18.64,9-18.64,9s-10.16,1.18-18.63-9h0a16.91,16.91,0,0,0-27.06,0h0c-8.47,10.16-18.63,9-18.63,9s-10.16,1.18-18.63-9h0a16.91,16.91,0,0,0-27.06,0h0c-8.47,10.16-18.64,9-18.64,9s-10.16,1.18-18.63-9h0a16.91,16.91,0,0,0-27.06,0h0c-8.47,10.16-18.63,9-18.63,9v63.86H1062V528S1051.81,529.18,1043.35,519Z"/><path class="cls-2" d="M1043.35,572.22h0a16.88,16.88,0,0,0-27,0h0c-8.47,10.16-18.63,9-18.63,9s-10.16,1.19-18.63-9h0a16.89,16.89,0,0,0-27.06,0h0c-8.47,10.16-18.63,9-18.63,9s-10.17,1.19-18.64-9h0a16.89,16.89,0,0,0-27.06,0h0c-8.47,10.16-18.63,9-18.63,9s-10.16,1.19-18.63-9h0a16.89,16.89,0,0,0-27.06,0h0c-8.47,10.16-18.63,9-18.63,9s-10.17,1.19-18.64-9h0a16.89,16.89,0,0,0-27.06,0h0c-8.47,10.16-18.63,9-18.63,9s-10.16,1.19-18.63-9h0a16.89,16.89,0,0,0-27.06,0h0c-8.47,10.16-18.64,9-18.64,9s-10.16,1.19-18.63-9h0a16.89,16.89,0,0,0-27.06,0h0c-8.47,10.16-18.63,9-18.63,9s-10.16,1.19-18.63-9h0a16.89,16.89,0,0,0-27.06,0h0c-8.47,10.16-18.64,9-18.64,9s-10.16,1.19-18.63-9h0a16.89,16.89,0,0,0-27.06,0h0c-8.47,10.16-18.63,9-18.63,9v63.86H1062V581.19S1051.81,582.38,1043.35,572.22Z"/><path class="cls-6" d="M1043.35,625.42h0a16.88,16.88,0,0,0-27,0h0c-8.47,10.16-18.63,9-18.63,9s-10.16,1.19-18.63-9h0a16.89,16.89,0,0,0-27.06,0h0c-8.47,10.16-18.63,9-18.63,9s-10.17,1.19-18.64-9h0a16.89,16.89,0,0,0-27.06,0h0c-8.47,10.16-18.63,9-18.63,9s-10.16,1.19-18.63-9h0a16.89,16.89,0,0,0-27.06,0h0c-8.47,10.16-18.63,9-18.63,9s-10.17,1.19-18.64-9h0a16.89,16.89,0,0,0-27.06,0h0c-8.47,10.16-18.63,9-18.63,9s-10.16,1.19-18.63-9h0a16.89,16.89,0,0,0-27.06,0h0c-8.47,10.16-18.64,9-18.64,9s-10.16,1.19-18.63-9h0a16.89,16.89,0,0,0-27.06,0h0c-8.47,10.16-18.63,9-18.63,9s-10.16,1.19-18.63-9h0a16.89,16.89,0,0,0-27.06,0h0c-8.47,10.16-18.64,9-18.64,9s-10.16,1.19-18.63-9h0a16.89,16.89,0,0,0-27.06,0h0c-8.47,10.16-18.63,9-18.63,9v63.86H1062V634.39S1051.81,635.58,1043.35,625.42Z"/><path class="cls-2" d="M1043.35,678.61h0a16.9,16.9,0,0,0-27,0h0c-8.47,10.16-18.63,9-18.63,9s-10.16,1.18-18.63-9h0a16.91,16.91,0,0,0-27.06,0h0c-8.47,10.16-18.63,9-18.63,9s-10.17,1.18-18.64-9h0a16.91,16.91,0,0,0-27.06,0h0c-8.47,10.16-18.63,9-18.63,9s-10.16,1.18-18.63-9h0a16.91,16.91,0,0,0-27.06,0h0c-8.47,10.16-18.63,9-18.63,9s-10.17,1.18-18.64-9h0a16.91,16.91,0,0,0-27.06,0h0c-8.47,10.16-18.63,9-18.63,9s-10.16,1.18-18.63-9h0a16.91,16.91,0,0,0-27.06,0h0c-8.47,10.16-18.64,9-18.64,9s-10.16,1.18-18.63-9h0a16.91,16.91,0,0,0-27.06,0h0c-8.47,10.16-18.63,9-18.63,9s-10.16,1.18-18.63-9h0a16.91,16.91,0,0,0-27.06,0h0c-8.47,10.16-18.64,9-18.64,9s-10.16,1.18-18.63-9h0a16.91,16.91,0,0,0-27.06,0h0c-8.47,10.16-18.63,9-18.63,9v63.86H1062V687.59S1051.81,688.77,1043.35,678.61Z"/><rect class="cls-7" x="1541.32" y="0.67" width="513.67" height="722.67"/><g class="cls-8"><rect class="cls-9" x="758.64" y="-100.59" width="1230.6" height="16.87" transform="translate(467.58 944.53) rotate(-45)"/><rect class="cls-9" x="828.65" y="-30.57" width="1230.6" height="16.87" transform="translate(438.58 1014.54) rotate(-45)"/><rect class="cls-9" x="898.66" y="39.44" width="1230.6" height="16.87" transform="translate(409.58 1084.56) rotate(-45)"/><rect class="cls-9" x="968.68" y="109.45" width="1230.6" height="16.87" transform="translate(380.58 1154.57) rotate(-45)"/><rect class="cls-9" x="1038.69" y="179.47" width="1230.6" height="16.87" transform="translate(351.58 1224.58) rotate(-45)"/><rect class="cls-9" x="1108.7" y="249.48" width="1230.6" height="16.87" transform="translate(322.58 1294.6) rotate(-45)"/><rect class="cls-9" x="1178.72" y="319.49" width="1230.6" height="16.87" transform="translate(293.58 1364.61) rotate(-45)"/><rect class="cls-9" x="1248.73" y="389.51" width="1230.6" height="16.87" transform="translate(264.58 1434.62) rotate(-45)"/><rect class="cls-9" x="1318.74" y="459.52" width="1230.6" height="16.87" transform="translate(235.58 1504.64) rotate(-45)"/><rect class="cls-9" x="1388.76" y="529.53" width="1230.6" height="16.87" transform="translate(206.58 1574.65) rotate(-45)"/><rect class="cls-9" x="1458.77" y="599.55" width="1230.6" height="16.87" transform="translate(177.57 1644.66) rotate(-45)"/><rect class="cls-9" x="1528.78" y="669.56" width="1230.6" height="16.87" transform="translate(148.57 1714.68) rotate(-45)"/><rect class="cls-9" x="1598.8" y="739.57" width="1230.6" height="16.87" transform="translate(119.57 1784.69) rotate(-45)"/><rect class="cls-9" x="1594.57" y="-105.2" width="1230.6" height="16.87" transform="translate(578.83 -1590.96) rotate(45)"/><rect class="cls-9" x="1524.55" y="-35.19" width="1230.6" height="16.87" transform="translate(607.83 -1520.94) rotate(45)"/><rect class="cls-9" x="1454.54" y="34.82" width="1230.6" height="16.87" transform="translate(636.83 -1450.93) rotate(45)"/><rect class="cls-10" x="1384.53" y="104.84" width="1230.6" height="16.87" transform="translate(665.83 -1380.92) rotate(45)"/><rect class="cls-9" x="1314.51" y="174.85" width="1230.6" height="16.87" transform="translate(694.83 -1310.9) rotate(45)"/><rect class="cls-10" x="1244.5" y="244.86" width="1230.6" height="16.87" transform="translate(723.83 -1240.89) rotate(45)"/><rect class="cls-9" x="1174.49" y="314.88" width="1230.6" height="16.87" transform="translate(752.83 -1170.87) rotate(45)"/><rect class="cls-10" x="1104.47" y="384.89" width="1230.6" height="16.87" transform="translate(781.83 -1100.86) rotate(45)"/><rect class="cls-9" x="1034.46" y="454.9" width="1230.6" height="16.87" transform="translate(810.83 -1030.85) rotate(45)"/><rect class="cls-10" x="964.45" y="524.92" width="1230.6" height="16.87" transform="translate(839.83 -960.83) rotate(45)"/><rect class="cls-9" x="894.43" y="594.93" width="1230.6" height="16.87" transform="translate(868.83 -890.82) rotate(45)"/><rect class="cls-9" x="824.42" y="664.94" width="1230.6" height="16.87" transform="translate(897.83 -820.81) rotate(45)"/><rect class="cls-9" x="754.41" y="734.96" width="1230.6" height="16.87" transform="translate(926.83 -750.79) rotate(45)"/></g><rect class="cls-11" x="1540.75" y="0.67" width="513.9" height="126.47"/><rect class="cls-2" x="1540.75" y="595.87" width="513.9" height="126.47"/><path class="cls-12" d="M1634.13,27.77A24.13,24.13,0,0,0,1610,51h0a24.11,24.11,0,0,0-48.21.89c0,.75,0,1.5.11,2.23h0l0,.22a25.2,25.2,0,0,0,.64,3.59c6.85,30.72,47.47,49.61,47.47,49.61s40.62-18.89,47.47-49.61a23.87,23.87,0,0,0,.64-3.59l0-.22h0c.07-.73.1-1.48.1-2.23A24.11,24.11,0,0,0,1634.13,27.77Z"/><path class="cls-2" d="M1759.16,27.77A24.13,24.13,0,0,0,1735.06,51h0a24.11,24.11,0,0,0-48.21.89c0,.75,0,1.5.11,2.23h0l0,.22a25.2,25.2,0,0,0,.64,3.59c6.85,30.72,47.47,49.61,47.47,49.61s40.62-18.89,47.47-49.61a23.87,23.87,0,0,0,.64-3.59l0-.22h0c.07-.73.1-1.48.1-2.23A24.11,24.11,0,0,0,1759.16,27.77Z"/><path class="cls-12" d="M1884.19,27.77A24.13,24.13,0,0,0,1860.09,51h0a24.11,24.11,0,0,0-48.21.89c0,.75,0,1.5.11,2.23h0l0,.22a25.2,25.2,0,0,0,.64,3.59c6.85,30.72,47.47,49.61,47.47,49.61s40.62-18.89,47.47-49.61a23.87,23.87,0,0,0,.64-3.59l0-.22h0c.07-.73.1-1.48.1-2.23A24.11,24.11,0,0,0,1884.19,27.77Z"/><path class="cls-2" d="M2033.24,54.12h0c.07-.73.1-1.48.1-2.23a24.11,24.11,0,0,0-48.21-.89h0a24.11,24.11,0,0,0-48.21.89c0,.75,0,1.5.11,2.23h0l0,.22a25.2,25.2,0,0,0,.64,3.59c6.85,30.72,47.47,49.61,47.47,49.61s40.62-18.89,47.47-49.61a23.87,23.87,0,0,0,.64-3.59Z"/><circle class="cls-2" cx="547.08" cy="658.1" r="11.04"/><circle class="cls-2" cx="611.31" cy="658.1" r="11.04"/><circle class="cls-2" cx="675.55" cy="658.1" r="11.04"/><circle class="cls-2" cx="739.79" cy="658.1" r="11.04"/><circle class="cls-2" cx="804.02" cy="658.1" r="11.04"/><circle class="cls-2" cx="868.26" cy="658.1" r="11.04"/><circle class="cls-2" cx="932.5" cy="658.1" r="11.04"/><circle class="cls-2" cx="996.74" cy="658.1" r="11.04"/><circle class="cls-2" cx="547.08" cy="551.71" r="11.04"/><circle class="cls-2" cx="611.31" cy="551.71" r="11.04"/><circle class="cls-2" cx="675.55" cy="551.71" r="11.04"/><circle class="cls-2" cx="739.79" cy="551.71" r="11.04"/><circle class="cls-2" cx="804.02" cy="551.71" r="11.04"/><circle class="cls-2" cx="868.26" cy="551.71" r="11.04"/><circle class="cls-2" cx="932.5" cy="551.71" r="11.04"/><circle class="cls-2" cx="996.74" cy="551.71" r="11.04"/><circle class="cls-2" cx="547.08" cy="445.32" r="11.04"/><circle class="cls-2" cx="611.31" cy="445.32" r="11.04"/><circle class="cls-2" cx="675.55" cy="445.32" r="11.04"/><circle class="cls-2" cx="739.79" cy="445.32" r="11.04"/><circle class="cls-2" cx="804.02" cy="445.32" r="11.04"/><circle class="cls-2" cx="868.26" cy="445.32" r="11.04"/><circle class="cls-2" cx="932.5" cy="445.32" r="11.04"/><circle class="cls-2" cx="996.74" cy="445.32" r="11.04"/><circle class="cls-2" cx="547.08" cy="338.92" r="11.04"/><circle class="cls-2" cx="611.31" cy="338.92" r="11.04"/><circle class="cls-2" cx="675.55" cy="338.92" r="11.04"/><circle class="cls-2" cx="739.79" cy="338.92" r="11.04"/><circle class="cls-2" cx="804.02" cy="338.92" r="11.04"/><circle class="cls-2" cx="868.26" cy="338.92" r="11.04"/><circle class="cls-2" cx="932.5" cy="338.92" r="11.04"/><circle class="cls-2" cx="996.74" cy="338.92" r="11.04"/><circle class="cls-2" cx="547.08" cy="232.53" r="11.04"/><circle class="cls-2" cx="611.31" cy="232.53" r="11.04"/><circle class="cls-2" cx="675.55" cy="232.53" r="11.04"/><circle class="cls-2" cx="739.79" cy="232.53" r="11.04"/><circle class="cls-2" cx="804.02" cy="232.53" r="11.04"/><circle class="cls-2" cx="868.26" cy="232.53" r="11.04"/><circle class="cls-2" cx="932.5" cy="232.53" r="11.04"/><circle class="cls-2" cx="996.74" cy="232.53" r="11.04"/><circle class="cls-2" cx="547.08" cy="126.14" r="11.04"/><circle class="cls-2" cx="611.31" cy="126.14" r="11.04"/><circle class="cls-2" cx="675.55" cy="126.14" r="11.04"/><circle class="cls-2" cx="739.79" cy="126.14" r="11.04"/><circle class="cls-2" cx="804.02" cy="126.14" r="11.04"/><circle class="cls-2" cx="868.26" cy="126.14" r="11.04"/><circle class="cls-2" cx="932.5" cy="126.14" r="11.04"/><circle class="cls-2" cx="996.74" cy="126.14" r="11.04"/><rect class="cls-13" x="2046.42" y="0.67" width="515.91" height="722.67"/><path class="cls-14" d="M2453.91,270.13l-26.59-16.38,74.47-140.56,44.14,27.18Zm-24.41,9.55a25.84,25.84,0,0,1,8.43,35.44,25.57,25.57,0,0,1-35.28,8.15,25.22,25.22,0,0,1-8-34.83C2402,276.38,2417.71,272.42,2429.5,279.68Z"/><path class="cls-14" d="M2131.45,350.05,2104,364.94l-52.26-83.12,5-93.34ZM2127.56,376a25.83,25.83,0,0,1,34.92,10.37A25.56,25.56,0,0,1,2152,421a25.23,25.23,0,0,1-34.21-10.39C2111,398.13,2115.39,382.57,2127.56,376Z"/><rect class="cls-15" x="2046.42" y="0.67" width="16.39" height="720.66"/><rect class="cls-15" x="2082.09" y="0.67" width="16.39" height="720.66"/><rect class="cls-15" x="2117.77" y="0.67" width="16.39" height="720.66"/><rect class="cls-15" x="2153.45" y="0.67" width="16.39" height="720.66"/><rect class="cls-15" x="2189.13" y="0.67" width="16.39" height="720.66"/><rect class="cls-15" x="2224.81" y="0.67" width="16.39" height="720.66"/><rect class="cls-15" x="2260.49" y="0.67" width="16.39" height="720.66"/><rect class="cls-15" x="2296.17" y="0.67" width="16.39" height="720.66"/><rect class="cls-15" x="2331.85" y="0.67" width="16.39" height="720.66"/><rect class="cls-15" x="2367.53" y="0.67" width="16.39" height="720.66"/><rect class="cls-15" x="2403.21" y="0.67" width="16.39" height="720.66"/><rect class="cls-15" x="2438.89" y="0.67" width="16.39" height="720.66"/><rect class="cls-15" x="2474.57" y="0.67" width="16.39" height="720.66"/><rect class="cls-15" x="2510.25" y="0.67" width="16.39" height="720.66"/><rect class="cls-15" x="2545.93" y="0.67" width="16.39" height="720.66"/><path class="cls-14" d="M2223.47,153.22l-24.09,19.88-109-115.87,40-33Zm1.16,26.18a25.83,25.83,0,0,1,36.26,3.47,25.56,25.56,0,0,1-3.67,36,25.22,25.22,0,0,1-35.57-3.63C2212.64,204.33,2214,188.21,2224.63,179.4Z"/><path class="cls-14" d="M2190,600l-28.7-12.3,53.07-150,47.65,20.43Zm-22.74,13a25.84,25.84,0,0,1,13.52,33.83A25.55,25.55,0,0,1,2147.13,660a25.23,25.23,0,0,1-13.07-33.28C2139.65,613.74,2154.57,607.53,2167.3,613Z"/><rect class="cls-15" x="2188.94" y="23.76" width="16.58" height="271.4"/><path class="cls-14" d="M2442.6,562.41l-28-13.74,60.56-147.09,46.56,22.8Zm-23.38,11.86A25.83,25.83,0,0,1,2431,608.73a25.55,25.55,0,0,1-34.32,11.51,25.21,25.21,0,0,1-11.37-33.89C2391.57,573.63,2406.79,568.18,2419.22,574.27Z"/><path class="cls-16" d="M2421.76,575.64a25.83,25.83,0,0,1,8.24,35.48,25.55,25.55,0,0,1-35.31,8,25.22,25.22,0,0,1-7.87-34.87C2394.32,572.2,2410,568.32,2421.76,575.64Z"/><path class="cls-16" d="M2170.8,614.73a25.85,25.85,0,0,1,8.24,35.49,25.57,25.57,0,0,1-35.32,8,25.22,25.22,0,0,1-7.86-34.87C2143.35,611.29,2159,607.41,2170.8,614.73Z"/><path class="cls-16" d="M2153.42,376.58a25.84,25.84,0,0,1,8.24,35.48,25.55,25.55,0,0,1-35.31,8,25.21,25.21,0,0,1-7.87-34.87C2126,373.14,2141.67,369.26,2153.42,376.58Z"/><path class="cls-16" d="M2254.39,176.92a25.6,25.6,0,1,1-27.07,43.45,25.21,25.21,0,0,1-7.86-34.87C2227,173.47,2242.64,169.59,2254.39,176.92Z"/><path class="cls-16" d="M2425.06,277.53a25.83,25.83,0,0,1,15.22,33.1,25.57,25.57,0,0,1-33,14.92A25.22,25.22,0,0,1,2392.57,293C2397.48,279.69,2412.08,272.73,2425.06,277.53Z"/><rect class="cls-15" x="2474.57" y="325.87" width="16.39" height="327.3"/><rect class="cls-1" x="-2.32" y="1.17" width="2569.28" height="720.16"/><polygon class="cls-17" points="506.05 0.07 506.05 31.93 433.07 0.07 506.05 0.07"/><polygon class="cls-5" points="432.47 0.07 506.05 32.2 506.05 103.53 269.11 0.07 432.47 0.07"/><polygon class="cls-17" points="251.78 0.07 268.51 0.07 506.05 103.79 506.05 175.12 251.78 64.09 251.78 0.07"/><polygon class="cls-5" points="269.11 0.07 506.05 103.53 506.05 103.79 268.51 0.07 269.11 0.07"/><polygon class="cls-5" points="251.78 64.35 506.05 175.38 506.05 246.71 251.78 135.68 251.78 64.35"/><polygon class="cls-17" points="251.78 135.95 506.05 246.97 506.05 318.3 251.78 207.28 251.78 135.95"/><polygon class="cls-5" points="251.78 207.54 506.05 318.56 506.05 389.89 251.78 278.87 251.78 207.54"/><polygon class="cls-17" points="251.78 279.13 506.05 390.15 506.05 461.49 251.78 350.46 251.78 279.13"/><polygon class="cls-5" points="251.78 350.72 506.05 461.75 506.05 528.42 495.39 528.42 251.78 422.05 251.78 350.72"/><polygon class="cls-17" points="251.78 422.31 494.79 528.42 331.43 528.42 251.78 493.64 251.78 422.31"/><polygon class="cls-5" points="251.78 528.42 251.78 493.9 330.83 528.42 251.78 528.42"/><polygon class="cls-5" points="251.93 214.06 268.67 214.06 506.2 317.78 506.2 389.11 251.93 278.08 251.93 214.06"/><polygon class="cls-17" points="251.93 278.34 506.2 389.37 506.2 460.7 251.93 349.68 251.93 278.34"/><polygon class="cls-5" points="251.93 349.94 506.2 460.96 506.2 532.29 251.93 421.27 251.93 349.94"/><polygon class="cls-17" points="251.93 421.53 506.2 532.55 506.2 603.88 251.93 492.86 251.93 421.53"/><polygon class="cls-5" points="251.93 493.12 506.2 604.14 506.2 675.48 251.93 564.45 251.93 493.12"/><polygon class="cls-17" points="251.93 564.71 506.2 675.74 506.2 742.41 495.55 742.41 251.93 636.04 251.93 564.71"/><polygon class="cls-5" points="251.93 636.3 494.95 742.41 331.58 742.41 251.93 707.63 251.93 636.3"/><polygon class="cls-17" points="251.93 742.41 251.93 707.9 330.99 742.41 251.93 742.41"/><polygon class="cls-18" points="-2.32 0.27 -2.32 32.13 70.65 0.27 -2.32 0.27"/><polygon class="cls-4" points="71.25 0.27 -2.32 32.4 -2.32 103.73 234.61 0.27 71.25 0.27"/><polygon class="cls-18" points="251.95 0.27 235.21 0.27 -2.32 103.99 -2.32 175.32 251.95 64.29 251.95 0.27"/><polygon class="cls-4" points="234.61 0.27 -2.32 103.73 -2.32 103.99 235.21 0.27 234.61 0.27"/><polygon class="cls-4" points="251.95 64.56 -2.32 175.58 -2.32 246.91 251.95 135.88 251.95 64.56"/><polygon class="cls-18" points="251.95 136.15 -2.32 247.17 -2.32 318.5 251.95 207.48 251.95 136.15"/><polygon class="cls-4" points="251.95 207.74 -2.32 318.76 -2.32 390.09 251.95 279.07 251.95 207.74"/><polygon class="cls-18" points="251.95 279.33 -2.32 390.36 -2.32 461.69 251.95 350.66 251.95 279.33"/><polygon class="cls-4" points="251.95 350.92 -2.32 461.95 -2.32 528.62 8.34 528.62 251.95 422.25 251.95 350.92"/><polygon class="cls-18" points="251.95 422.51 8.94 528.62 172.3 528.62 251.95 493.84 251.95 422.51"/><polygon class="cls-4" points="251.95 528.62 251.95 494.11 172.9 528.62 251.95 528.62"/><polygon class="cls-4" points="251.95 214.06 235.21 214.06 -2.32 317.78 -2.32 389.11 251.95 278.08 251.95 214.06"/><polygon class="cls-18" points="251.95 278.34 -2.32 389.37 -2.32 460.7 251.95 349.68 251.95 278.34"/><polygon class="cls-4" points="251.95 349.94 -2.32 460.96 -2.32 532.29 251.95 421.27 251.95 349.94"/><polygon class="cls-18" points="251.95 421.53 -2.32 532.55 -2.32 603.88 251.95 492.86 251.95 421.53"/><polygon class="cls-4" points="251.95 493.12 -2.32 604.14 -2.32 675.48 251.95 564.45 251.95 493.12"/><polygon class="cls-18" points="251.95 564.71 -2.32 675.74 -2.32 742.41 8.34 742.41 251.95 636.04 251.95 564.71"/><polygon class="cls-4" points="251.95 636.3 8.94 742.41 172.3 742.41 251.95 707.63 251.95 636.3"/><polygon class="cls-18" points="251.95 742.41 251.95 707.9 172.9 742.41 251.95 742.41"/><circle class="cls-19" cx="86.37" cy="104.05" r="39.14"/><circle class="cls-19" cx="164.16" cy="104.04" r="39.14"/><circle class="cls-19" cx="319.17" cy="274.57" r="39.14"/><circle class="cls-19" cx="397.46" cy="274.57" r="39.14"/><circle class="cls-19" cx="105.3" cy="438.1" r="39.14"/><circle class="cls-19" cx="183.59" cy="438.1" r="39.14"/><circle class="cls-19" cx="349.34" cy="582.82" r="39.14"/><circle class="cls-19" cx="427.63" cy="582.82" r="39.14"/><circle class="cls-2" cx="335.59" cy="262" r="14.05"/><circle class="cls-2" cx="370.12" cy="583.11" r="14.05"/><circle class="cls-2" cx="412.05" cy="259.87" r="14.05"/><circle class="cls-2" cx="107.27" cy="104.05" r="14.05"/><circle class="cls-2" cx="184.64" cy="104.04" r="14.05"/><circle class="cls-2" cx="84.61" cy="438.1" r="14.05"/><circle class="cls-2" cx="162.97" cy="438.1" r="14.05"/><circle class="cls-2" cx="448.12" cy="582.53" r="14.05"/><rect class="cls-20" x="1035.09" y="-0.33" width="513.67" height="722.67"/><circle class="cls-21" cx="1095.92" cy="51.3" r="17.66"/><circle class="cls-21" cx="1161.25" cy="51.3" r="17.66"/><circle class="cls-21" cx="1226.59" cy="51.3" r="17.66"/><circle class="cls-21" cx="1291.92" cy="51.3" r="17.66"/><circle class="cls-21" cx="1357.25" cy="51.3" r="17.66"/><circle class="cls-21" cx="1422.59" cy="51.3" r="17.66"/><circle class="cls-21" cx="1487.92" cy="51.3" r="17.66"/><circle class="cls-21" cx="1095.92" cy="113.11" r="17.66"/><circle class="cls-21" cx="1161.25" cy="113.11" r="17.66"/><circle class="cls-21" cx="1226.59" cy="113.11" r="17.66"/><circle class="cls-21" cx="1291.92" cy="113.11" r="17.66"/><circle class="cls-21" cx="1357.25" cy="113.11" r="17.66"/><circle class="cls-21" cx="1422.59" cy="113.11" r="17.66"/><circle class="cls-21" cx="1487.92" cy="113.11" r="17.66"/><circle class="cls-21" cx="1095.92" cy="174.91" r="17.66"/><circle class="cls-21" cx="1161.25" cy="174.91" r="17.66"/><circle class="cls-21" cx="1226.59" cy="174.91" r="17.66"/><circle class="cls-21" cx="1291.92" cy="174.91" r="17.66"/><circle class="cls-21" cx="1357.25" cy="174.91" r="17.66"/><circle class="cls-21" cx="1422.59" cy="174.91" r="17.66"/><circle class="cls-21" cx="1487.92" cy="174.91" r="17.66"/><circle class="cls-21" cx="1095.92" cy="236.71" r="17.66"/><circle class="cls-21" cx="1161.25" cy="236.71" r="17.66"/><circle class="cls-21" cx="1226.59" cy="236.71" r="17.66"/><circle class="cls-21" cx="1291.92" cy="236.71" r="17.66"/><circle class="cls-21" cx="1357.25" cy="236.71" r="17.66"/><circle class="cls-21" cx="1422.59" cy="236.71" r="17.66"/><circle class="cls-21" cx="1487.92" cy="236.71" r="17.66"/><circle class="cls-21" cx="1095.92" cy="298.51" r="17.66"/><circle class="cls-21" cx="1161.25" cy="298.51" r="17.66"/><circle class="cls-21" cx="1226.59" cy="298.51" r="17.66"/><circle class="cls-21" cx="1291.92" cy="298.51" r="17.66"/><circle class="cls-21" cx="1357.25" cy="298.51" r="17.66"/><circle class="cls-21" cx="1422.59" cy="298.51" r="17.66"/><circle class="cls-21" cx="1487.92" cy="298.51" r="17.66"/><circle class="cls-21" cx="1095.92" cy="360.32" r="17.66"/><circle class="cls-21" cx="1161.25" cy="360.32" r="17.66"/><circle class="cls-21" cx="1226.59" cy="360.32" r="17.66"/><circle class="cls-21" cx="1291.92" cy="360.32" r="17.66"/><circle class="cls-21" cx="1357.25" cy="360.32" r="17.66"/><circle class="cls-21" cx="1422.59" cy="360.32" r="17.66"/><circle class="cls-21" cx="1487.92" cy="360.32" r="17.66"/><circle class="cls-21" cx="1095.92" cy="422.12" r="17.66"/><circle class="cls-21" cx="1161.25" cy="422.12" r="17.66"/><circle class="cls-21" cx="1226.59" cy="422.12" r="17.66"/><circle class="cls-21" cx="1291.92" cy="422.12" r="17.66"/><circle class="cls-21" cx="1357.25" cy="422.12" r="17.66"/><circle class="cls-21" cx="1422.59" cy="422.12" r="17.66"/><circle class="cls-21" cx="1487.92" cy="422.12" r="17.66"/><circle class="cls-21" cx="1095.92" cy="483.92" r="17.66"/><circle class="cls-21" cx="1161.25" cy="483.92" r="17.66"/><circle class="cls-21" cx="1226.59" cy="483.92" r="17.66"/><circle class="cls-21" cx="1291.92" cy="483.92" r="17.66"/><circle class="cls-21" cx="1357.25" cy="483.92" r="17.66"/><circle class="cls-21" cx="1422.59" cy="483.92" r="17.66"/><circle class="cls-21" cx="1487.92" cy="483.92" r="17.66"/><circle class="cls-21" cx="1095.92" cy="545.72" r="17.66"/><circle class="cls-21" cx="1161.25" cy="545.72" r="17.66"/><circle class="cls-21" cx="1226.59" cy="545.72" r="17.66"/><circle class="cls-21" cx="1291.92" cy="545.72" r="17.66"/><circle class="cls-21" cx="1357.25" cy="545.72" r="17.66"/><circle class="cls-21" cx="1422.59" cy="545.72" r="17.66"/><circle class="cls-21" cx="1487.92" cy="545.72" r="17.66"/><circle class="cls-21" cx="1095.92" cy="607.53" r="17.66"/><circle class="cls-21" cx="1161.25" cy="607.53" r="17.66"/><circle class="cls-21" cx="1226.59" cy="607.53" r="17.66"/><circle class="cls-21" cx="1291.92" cy="607.53" r="17.66"/><circle class="cls-21" cx="1357.25" cy="607.53" r="17.66"/><circle class="cls-21" cx="1422.59" cy="607.53" r="17.66"/><circle class="cls-21" cx="1487.92" cy="607.53" r="17.66"/><circle class="cls-21" cx="1095.92" cy="669.33" r="17.66"/><circle class="cls-21" cx="1161.25" cy="669.33" r="17.66"/><circle class="cls-21" cx="1226.59" cy="669.33" r="17.66"/><circle class="cls-21" cx="1291.92" cy="669.33" r="17.66"/><circle class="cls-21" cx="1357.25" cy="669.33" r="17.66"/><circle class="cls-21" cx="1422.59" cy="669.33" r="17.66"/><circle class="cls-21" cx="1487.92" cy="669.33" r="17.66"/><circle class="cls-19" cx="2257.03" cy="379.07" r="39.14"/><circle class="cls-19" cx="2335.32" cy="379.07" r="39.14"/><circle class="cls-2" cx="2276.27" cy="366.64" r="14.05"/><circle class="cls-2" cx="2354.39" cy="366.64" r="14.05"/><rect class="cls-2" x="506.05" y="0.07" width="1540.37" height="269.53"/><rect class="cls-11" x="505.58" y="563.38" width="1540.37" height="160.48"/><path class="cls-12" d="M607.24,601.23a24.1,24.1,0,0,0-24.09,23.23h0a24.11,24.11,0,0,0-48.21.88c0,.76,0,1.5.11,2.24h0c0,.07,0,.14,0,.21a23.42,23.42,0,0,0,.63,3.59C542.51,662.1,583.12,681,583.12,681s40.62-18.89,47.48-49.61a23.42,23.42,0,0,0,.63-3.59c0-.07,0-.14,0-.21h0c.07-.74.11-1.48.11-2.24A24.11,24.11,0,0,0,607.24,601.23Z"/><path class="cls-14" d="M732.27,601.23a24.1,24.1,0,0,0-24.09,23.23h0a24.11,24.11,0,0,0-48.21.88c0,.76,0,1.5.11,2.24h0c0,.07,0,.14,0,.21a23.42,23.42,0,0,0,.63,3.59C667.54,662.1,708.15,681,708.15,681s40.62-18.89,47.48-49.61a23.42,23.42,0,0,0,.63-3.59c0-.07,0-.14,0-.21h0c.07-.74.11-1.48.11-2.24A24.11,24.11,0,0,0,732.27,601.23Z"/><path class="cls-14" d="M1880.6,607.13a24.11,24.11,0,0,0-24.09,23.23h0a24.11,24.11,0,0,0-48.21.89c0,.75,0,1.49.11,2.23h0a1.52,1.52,0,0,0,0,.21,23.43,23.43,0,0,0,.64,3.59c6.85,30.73,47.47,49.61,47.47,49.61S1897.1,668,1904,637.28a24.71,24.71,0,0,0,.64-3.59l0-.21h0c.07-.74.11-1.48.11-2.23A24.12,24.12,0,0,0,1880.6,607.13Z"/><path class="cls-12" d="M2029.66,633.48h0c.07-.74.11-1.48.11-2.23a24.11,24.11,0,0,0-48.21-.89h0a24.11,24.11,0,0,0-48.21.89c0,.75,0,1.49.11,2.23h0a1.92,1.92,0,0,0,0,.22,23.52,23.52,0,0,0,.64,3.58c6.85,30.73,47.47,49.61,47.47,49.61S2022.13,668,2029,637.28a24.81,24.81,0,0,0,.64-3.58Z"/><circle class="cls-22" cx="1983.58" cy="162.44" r="17.37"/><circle class="cls-22" cx="1806.53" cy="197.19" r="17.37"/><circle class="cls-22" cx="711.9" cy="66.81" r="17.37"/><circle class="cls-23" cx="1683.26" cy="107.64" r="17.37"/><circle class="cls-12" cx="1830.66" cy="52.05" r="17.37"/><circle class="cls-24" cx="614.55" cy="186.39" r="17.37"/><circle class="cls-12" cx="757.32" cy="186.39" r="17.37"/></g></svg>