<svg id="Layer_1" data-name="Layer 1" xmlns="http://www.w3.org/2000/svg" xmlns:xlink="http://www.w3.org/1999/xlink" viewBox="0 0 360 560"><defs><style>.cls-1{fill:none;}.cls-2{clip-path:url(#clip-path);}.cls-3{fill:#045125;}.cls-14,.cls-23,.cls-4{fill:#fff;}.cls-14,.cls-4{stroke:#0e3ed8;}.cls-14,.cls-29,.cls-4{stroke-miterlimit:10;}.cls-4{stroke-width:3.26px;}.cls-5{clip-path:url(#clip-path-2);}.cls-6{clip-path:url(#clip-path-3);}.cls-7{fill:#f42278;}.cls-8{clip-path:url(#clip-path-4);}.cls-9{fill:#57d4ff;}.cls-10{fill:#ff7c06;}.cls-11{fill:#cc640e;}.cls-12{fill:#014226;}.cls-13{fill:#056658;}.cls-14{stroke-width:3.22px;}.cls-15{clip-path:url(#clip-path-5);}.cls-16{clip-path:url(#clip-path-6);}.cls-17{fill:#f7f12f;}.cls-18{fill:#00c9ff;}.cls-19{clip-path:url(#clip-path-7);}.cls-20{fill:#d1cfd1;}.cls-21{fill:#f915b9;}.cls-22{fill:#285c14;}.cls-24{fill:#e87400;}.cls-25{fill:#0e3ed8;}.cls-26{fill:#1b8fdd;}.cls-27{fill:#f20fdd;}.cls-28{fill:#fa0;}.cls-29{fill:#77620a;stroke:#57d4ff;stroke-width:22px;}</style><clipPath id="clip-path"><rect class="cls-1" width="360" height="560"/></clipPath><clipPath id="clip-path-2"><rect class="cls-1" x="-0.02" width="364.08" height="256.33"/></clipPath><clipPath id="clip-path-3"><rect class="cls-1" x="-0.41" width="774.25" height="256.33"/></clipPath><clipPath id="clip-path-4"><rect class="cls-1" x="546.53" y="-27.33" width="182.83" height="257.22"/></clipPath><clipPath id="clip-path-5"><rect class="cls-1" x="-3.33" y="250.91" width="364.76" height="253.01"/></clipPath><clipPath id="clip-path-6"><rect class="cls-1" x="-361.19" y="250.91" width="764.23" height="253.01"/></clipPath><clipPath id="clip-path-7"><rect class="cls-1" x="178.67" y="223.94" width="180.47" height="253.89"/></clipPath></defs><title>1212_Campaign_banner_mobile</title><g class="cls-2"><rect class="cls-3" x="-17.64" y="503.93" width="398.21" height="56.07"/><circle class="cls-4" cx="165.87" cy="533.59" r="14.13"/><circle class="cls-4" cx="194.13" cy="533.59" r="14.13"/><circle class="cls-3" cx="172.82" cy="529.1" r="5.07"/><circle class="cls-3" cx="201.02" cy="529.1" r="5.07"/><g class="cls-5"><g class="cls-6"><path class="cls-7" d="M371.78-5h0A6,6,0,0,0,367-7.44,6,6,0,0,0,362.14-5h0a8.05,8.05,0,0,1-6.64,3.19A8,8,0,0,1,348.87-5h0a6,6,0,0,0-4.82-2.42A6,6,0,0,0,339.23-5h0a8.05,8.05,0,0,1-6.64,3.19A8,8,0,0,1,326-5h0a6,6,0,0,0-4.81-2.42A6,6,0,0,0,316.32-5h0a8.05,8.05,0,0,1-6.64,3.19A8,8,0,0,1,303.05-5h0a6,6,0,0,0-4.82-2.42A6,6,0,0,0,293.41-5h0a8.05,8.05,0,0,1-6.64,3.19A8,8,0,0,1,280.14-5h0a6,6,0,0,0-4.82-2.42A6,6,0,0,0,270.5-5h0a8.05,8.05,0,0,1-6.64,3.19A8,8,0,0,1,257.23-5h0a6,6,0,0,0-4.82-2.42A6,6,0,0,0,247.59-5h0A8.05,8.05,0,0,1,241-1.83,8,8,0,0,1,234.32-5h0a6,6,0,0,0-4.82-2.42A6,6,0,0,0,224.68-5h0a8,8,0,0,1-6.63,3.19A8.05,8.05,0,0,1,211.41-5h0a6,6,0,0,0-4.82-2.42A6,6,0,0,0,201.77-5h0a8,8,0,0,1-6.63,3.19A8.05,8.05,0,0,1,188.5-5h0a6,6,0,0,0-4.82-2.42A6,6,0,0,0,178.86-5h0a8,8,0,0,1-6.63,3.19V20.9H378.41V-1.83A8,8,0,0,1,371.78-5Z"/><path class="cls-3" d="M371.78,13.91h0a6,6,0,0,0-9.63,0h0a8.5,8.5,0,0,1-13.27,0h0a6,6,0,0,0-9.64,0h0a8.5,8.5,0,0,1-13.27,0h0a6,6,0,0,0-9.63,0h0a8.5,8.5,0,0,1-13.27,0h0a6,6,0,0,0-9.64,0h0a8.5,8.5,0,0,1-13.27,0h0a6,6,0,0,0-9.64,0h0a8.5,8.5,0,0,1-13.27,0h0a6,6,0,0,0-9.64,0h0a8.5,8.5,0,0,1-13.27,0h0a6,6,0,0,0-9.64,0h0a8.5,8.5,0,0,1-13.27,0h0a6,6,0,0,0-9.64,0h0a8.5,8.5,0,0,1-13.27,0h0a6,6,0,0,0-9.64,0h0a8,8,0,0,1-6.63,3.19V39.83H378.41V17.1A8,8,0,0,1,371.78,13.91Z"/><path class="cls-7" d="M371.78,32.84h0a6,6,0,0,0-9.63,0h0a8.48,8.48,0,0,1-13.27,0h0a6,6,0,0,0-9.64,0h0a8.48,8.48,0,0,1-13.27,0h0a6,6,0,0,0-9.63,0h0a8.48,8.48,0,0,1-13.27,0h0a6,6,0,0,0-9.64,0h0a8.48,8.48,0,0,1-13.27,0h0a6,6,0,0,0-9.64,0h0a8.48,8.48,0,0,1-13.27,0h0a6,6,0,0,0-9.64,0h0a8.48,8.48,0,0,1-13.27,0h0a6,6,0,0,0-9.64,0h0a8.48,8.48,0,0,1-13.27,0h0a6,6,0,0,0-9.64,0h0a8.48,8.48,0,0,1-13.27,0h0a6,6,0,0,0-9.64,0h0a8,8,0,0,1-6.63,3.2V58.77H378.41V36A8,8,0,0,1,371.78,32.84Z"/><path class="cls-3" d="M371.78,51.78h0a6,6,0,0,0-9.63,0h0a8.5,8.5,0,0,1-13.27,0h0a6,6,0,0,0-9.64,0h0a8.5,8.5,0,0,1-13.27,0h0a6,6,0,0,0-9.63,0h0a8.5,8.5,0,0,1-13.27,0h0a6,6,0,0,0-9.64,0h0a8.5,8.5,0,0,1-13.27,0h0a6,6,0,0,0-9.64,0h0a8.5,8.5,0,0,1-13.27,0h0a6,6,0,0,0-9.64,0h0a8.5,8.5,0,0,1-13.27,0h0a6,6,0,0,0-9.64,0h0a8.5,8.5,0,0,1-13.27,0h0a6,6,0,0,0-9.64,0h0a8.5,8.5,0,0,1-13.27,0h0a6,6,0,0,0-9.64,0h0A8,8,0,0,1,172.23,55V77.7H378.41V55A8,8,0,0,1,371.78,51.78Z"/><path class="cls-7" d="M371.78,70.71h0a6,6,0,0,0-9.63,0h0a8.48,8.48,0,0,1-13.27,0h0a6,6,0,0,0-9.64,0h0a8.48,8.48,0,0,1-13.27,0h0a6,6,0,0,0-9.63,0h0a8.48,8.48,0,0,1-13.27,0h0a6,6,0,0,0-9.64,0h0a8.48,8.48,0,0,1-13.27,0h0a6,6,0,0,0-9.64,0h0a8.48,8.48,0,0,1-13.27,0h0a6,6,0,0,0-9.64,0h0a8.48,8.48,0,0,1-13.27,0h0a6,6,0,0,0-9.64,0h0a8.48,8.48,0,0,1-13.27,0h0a6,6,0,0,0-9.64,0h0a8.48,8.48,0,0,1-13.27,0h0a6,6,0,0,0-9.64,0h0a8,8,0,0,1-6.63,3.2V96.64H378.41V73.91A8,8,0,0,1,371.78,70.71Z"/><path class="cls-3" d="M371.78,89.65h0a6,6,0,0,0-9.63,0h0a8.5,8.5,0,0,1-13.27,0h0a6,6,0,0,0-9.64,0h0a8.5,8.5,0,0,1-13.27,0h0a6,6,0,0,0-9.63,0h0a8.5,8.5,0,0,1-13.27,0h0a6,6,0,0,0-9.64,0h0a8.5,8.5,0,0,1-13.27,0h0a6,6,0,0,0-9.64,0h0a8.5,8.5,0,0,1-13.27,0h0a6,6,0,0,0-9.64,0h0a8.5,8.5,0,0,1-13.27,0h0a6,6,0,0,0-9.64,0h0a8.5,8.5,0,0,1-13.27,0h0a6,6,0,0,0-9.64,0h0a8.5,8.5,0,0,1-13.27,0h0a6,6,0,0,0-9.64,0h0a8,8,0,0,1-6.63,3.19v22.73H378.41V92.84A8,8,0,0,1,371.78,89.65Z"/><path class="cls-7" d="M371.78,108.58h0a6,6,0,0,0-9.63,0h0a8.48,8.48,0,0,1-13.27,0h0a6,6,0,0,0-9.64,0h0a8.48,8.48,0,0,1-13.27,0h0a6,6,0,0,0-9.63,0h0a8.48,8.48,0,0,1-13.27,0h0a6,6,0,0,0-9.64,0h0a8.48,8.48,0,0,1-13.27,0h0a6,6,0,0,0-9.64,0h0a8.48,8.48,0,0,1-13.27,0h0a6,6,0,0,0-9.64,0h0a8.48,8.48,0,0,1-13.27,0h0a6,6,0,0,0-9.64,0h0a8.48,8.48,0,0,1-13.27,0h0a6,6,0,0,0-9.64,0h0a8.48,8.48,0,0,1-13.27,0h0a6,6,0,0,0-9.64,0h0a8,8,0,0,1-6.63,3.2v22.73H378.41V111.78A8,8,0,0,1,371.78,108.58Z"/><path class="cls-3" d="M371.78,127.52h0a6,6,0,0,0-9.63,0h0a8.5,8.5,0,0,1-13.27,0h0a6,6,0,0,0-9.64,0h0a8.5,8.5,0,0,1-13.27,0h0a6,6,0,0,0-9.63,0h0a8.5,8.5,0,0,1-13.27,0h0a6,6,0,0,0-9.64,0h0a8.5,8.5,0,0,1-13.27,0h0a6,6,0,0,0-9.64,0h0a8.5,8.5,0,0,1-13.27,0h0a6,6,0,0,0-9.64,0h0a8.5,8.5,0,0,1-13.27,0h0a6,6,0,0,0-9.64,0h0a8.5,8.5,0,0,1-13.27,0h0a6,6,0,0,0-9.64,0h0a8.5,8.5,0,0,1-13.27,0h0a6,6,0,0,0-9.64,0h0a8,8,0,0,1-6.63,3.19v22.73H378.41V130.71A8,8,0,0,1,371.78,127.52Z"/><path class="cls-7" d="M371.78,146.45h0a6,6,0,0,0-9.63,0h0a8.48,8.48,0,0,1-13.27,0h0a6,6,0,0,0-9.64,0h0a8.48,8.48,0,0,1-13.27,0h0a6,6,0,0,0-9.63,0h0a8.48,8.48,0,0,1-13.27,0h0a6,6,0,0,0-9.64,0h0a8.48,8.48,0,0,1-13.27,0h0a6,6,0,0,0-9.64,0h0a8.48,8.48,0,0,1-13.27,0h0a6,6,0,0,0-9.64,0h0a8.48,8.48,0,0,1-13.27,0h0a6,6,0,0,0-9.64,0h0a8.48,8.48,0,0,1-13.27,0h0a6,6,0,0,0-9.64,0h0a8.48,8.48,0,0,1-13.27,0h0a6,6,0,0,0-9.64,0h0a8,8,0,0,1-6.63,3.2v22.73H378.41V149.65A8,8,0,0,1,371.78,146.45Z"/><path class="cls-3" d="M371.78,165.39h0a6,6,0,0,0-9.63,0h0a8.5,8.5,0,0,1-13.27,0h0a6,6,0,0,0-9.64,0h0a8.5,8.5,0,0,1-13.27,0h0a6,6,0,0,0-9.63,0h0a8.5,8.5,0,0,1-13.27,0h0a6,6,0,0,0-9.64,0h0a8.5,8.5,0,0,1-13.27,0h0a6,6,0,0,0-9.64,0h0a8.5,8.5,0,0,1-13.27,0h0a6,6,0,0,0-9.64,0h0a8.5,8.5,0,0,1-13.27,0h0a6,6,0,0,0-9.64,0h0a8.5,8.5,0,0,1-13.27,0h0a6,6,0,0,0-9.64,0h0a8.5,8.5,0,0,1-13.27,0h0a6,6,0,0,0-9.64,0h0a8,8,0,0,1-6.63,3.19v22.73H378.41V168.58A8,8,0,0,1,371.78,165.39Z"/><path class="cls-7" d="M371.78,184.32h0a6,6,0,0,0-9.63,0h0a8.5,8.5,0,0,1-13.27,0h0a6,6,0,0,0-9.64,0h0a8.5,8.5,0,0,1-13.27,0h0a6,6,0,0,0-9.63,0h0a8.5,8.5,0,0,1-13.27,0h0a6,6,0,0,0-9.64,0h0a8.5,8.5,0,0,1-13.27,0h0a6,6,0,0,0-9.64,0h0a8.5,8.5,0,0,1-13.27,0h0a6,6,0,0,0-9.64,0h0a8.5,8.5,0,0,1-13.27,0h0a6,6,0,0,0-9.64,0h0a8.5,8.5,0,0,1-13.27,0h0a6,6,0,0,0-9.64,0h0a8.5,8.5,0,0,1-13.27,0h0a6,6,0,0,0-9.64,0h0a8,8,0,0,1-6.63,3.19v22.73H378.41V187.51A8,8,0,0,1,371.78,184.32Z"/><path class="cls-3" d="M371.78,203.25h0a6,6,0,0,0-9.63,0h0a8.48,8.48,0,0,1-13.27,0h0a6,6,0,0,0-9.64,0h0a8.48,8.48,0,0,1-13.27,0h0a6,6,0,0,0-9.63,0h0a8.48,8.48,0,0,1-13.27,0h0a6,6,0,0,0-9.64,0h0a8.48,8.48,0,0,1-13.27,0h0a6,6,0,0,0-9.64,0h0a8.48,8.48,0,0,1-13.27,0h0a6,6,0,0,0-9.64,0h0a8.48,8.48,0,0,1-13.27,0h0a6,6,0,0,0-9.64,0h0a8.48,8.48,0,0,1-13.27,0h0a6,6,0,0,0-9.64,0h0a8.48,8.48,0,0,1-13.27,0h0a6,6,0,0,0-9.64,0h0a8,8,0,0,1-6.63,3.2v22.73H378.41V206.45A8,8,0,0,1,371.78,203.25Z"/><path class="cls-7" d="M371.78,222.19h0a6,6,0,0,0-9.63,0h0a8.5,8.5,0,0,1-13.27,0h0a6,6,0,0,0-9.64,0h0a8.5,8.5,0,0,1-13.27,0h0a6,6,0,0,0-9.63,0h0a8.5,8.5,0,0,1-13.27,0h0a6,6,0,0,0-9.64,0h0a8.5,8.5,0,0,1-13.27,0h0a6,6,0,0,0-9.64,0h0a8.5,8.5,0,0,1-13.27,0h0a6,6,0,0,0-9.64,0h0a8.5,8.5,0,0,1-13.27,0h0a6,6,0,0,0-9.64,0h0a8.5,8.5,0,0,1-13.27,0h0a6,6,0,0,0-9.64,0h0a8.5,8.5,0,0,1-13.27,0h0a6,6,0,0,0-9.64,0h0a8,8,0,0,1-6.63,3.19v22.73H378.41V225.38A8,8,0,0,1,371.78,222.19Z"/><path class="cls-3" d="M371.78,241.12h0a6,6,0,0,0-9.63,0h0a8.48,8.48,0,0,1-13.27,0h0a6,6,0,0,0-9.64,0h0a8.48,8.48,0,0,1-13.27,0h0a6,6,0,0,0-9.63,0h0a8.48,8.48,0,0,1-13.27,0h0a6,6,0,0,0-9.64,0h0a8.48,8.48,0,0,1-13.27,0h0a6,6,0,0,0-9.64,0h0a8.48,8.48,0,0,1-13.27,0h0a6,6,0,0,0-9.64,0h0a8.48,8.48,0,0,1-13.27,0h0a6,6,0,0,0-9.64,0h0a8.48,8.48,0,0,1-13.27,0h0a6,6,0,0,0-9.64,0h0a8.48,8.48,0,0,1-13.27,0h0a6,6,0,0,0-9.64,0h0a8,8,0,0,1-6.63,3.2v22.73H378.41V244.32A8,8,0,0,1,371.78,241.12Z"/><g class="cls-8"><rect class="cls-9" x="268.84" y="-36.22" width="438.01" height="6" transform="translate(166.38 335.23) rotate(-45)"/><rect class="cls-9" x="293.76" y="-11.3" width="438.01" height="6" transform="translate(156.06 360.15) rotate(-45)"/><rect class="cls-9" x="292.26" y="236.26" width="438.01" height="6" transform="translate(318.93 -291.44) rotate(45)"/><rect class="cls-9" x="267.34" y="261.18" width="438.01" height="6" transform="translate(329.25 -266.52) rotate(45)"/></g><circle class="cls-3" cx="195.14" cy="233.82" r="3.93"/><circle class="cls-3" cx="218.01" cy="233.82" r="3.93"/><circle class="cls-3" cx="240.87" cy="233.82" r="3.93"/><circle class="cls-3" cx="263.74" cy="233.82" r="3.93"/><circle class="cls-3" cx="286.6" cy="233.82" r="3.93"/><circle class="cls-3" cx="309.46" cy="233.82" r="3.93"/><circle class="cls-3" cx="332.33" cy="233.82" r="3.93"/><circle class="cls-3" cx="355.19" cy="233.82" r="3.93"/><circle class="cls-3" cx="195.14" cy="195.95" r="3.93"/><circle class="cls-3" cx="218.01" cy="195.95" r="3.93"/><circle class="cls-3" cx="240.87" cy="195.95" r="3.93"/><circle class="cls-3" cx="263.74" cy="195.95" r="3.93"/><circle class="cls-3" cx="286.6" cy="195.95" r="3.93"/><circle class="cls-3" cx="309.46" cy="195.95" r="3.93"/><circle class="cls-3" cx="332.33" cy="195.95" r="3.93"/><circle class="cls-3" cx="355.19" cy="195.95" r="3.93"/><circle class="cls-3" cx="195.14" cy="158.09" r="3.93"/><circle class="cls-3" cx="218.01" cy="158.09" r="3.93"/><circle class="cls-3" cx="240.87" cy="158.09" r="3.93"/><circle class="cls-3" cx="263.74" cy="158.09" r="3.93"/><circle class="cls-3" cx="286.6" cy="158.09" r="3.93"/><circle class="cls-3" cx="309.46" cy="158.09" r="3.93"/><circle class="cls-3" cx="332.33" cy="158.09" r="3.93"/><circle class="cls-3" cx="355.19" cy="158.09" r="3.93"/><circle class="cls-3" cx="195.14" cy="120.22" r="3.93"/><circle class="cls-3" cx="218.01" cy="120.22" r="3.93"/><circle class="cls-3" cx="240.87" cy="120.22" r="3.93"/><circle class="cls-3" cx="263.74" cy="120.22" r="3.93"/><circle class="cls-3" cx="286.6" cy="120.22" r="3.93"/><circle class="cls-3" cx="309.46" cy="120.22" r="3.93"/><circle class="cls-3" cx="332.33" cy="120.22" r="3.93"/><circle class="cls-3" cx="355.19" cy="120.22" r="3.93"/><circle class="cls-3" cx="195.14" cy="82.35" r="3.93"/><circle class="cls-3" cx="218.01" cy="82.35" r="3.93"/><circle class="cls-3" cx="240.87" cy="82.35" r="3.93"/><circle class="cls-3" cx="263.74" cy="82.35" r="3.93"/><circle class="cls-3" cx="286.6" cy="82.35" r="3.93"/><circle class="cls-3" cx="309.46" cy="82.35" r="3.93"/><circle class="cls-3" cx="332.33" cy="82.35" r="3.93"/><circle class="cls-3" cx="355.19" cy="82.35" r="3.93"/><circle class="cls-3" cx="195.14" cy="44.48" r="3.93"/><circle class="cls-3" cx="218.01" cy="44.48" r="3.93"/><circle class="cls-3" cx="240.87" cy="44.48" r="3.93"/><circle class="cls-3" cx="263.74" cy="44.48" r="3.93"/><circle class="cls-3" cx="286.6" cy="44.48" r="3.93"/><circle class="cls-3" cx="309.46" cy="44.48" r="3.93"/><circle class="cls-3" cx="332.33" cy="44.48" r="3.93"/><circle class="cls-3" cx="355.19" cy="44.48" r="3.93"/><circle class="cls-3" cx="195.14" cy="6.61" r="3.93"/><circle class="cls-3" cx="218.01" cy="6.61" r="3.93"/><circle class="cls-3" cx="240.87" cy="6.61" r="3.93"/><circle class="cls-3" cx="263.74" cy="6.61" r="3.93"/><circle class="cls-3" cx="286.6" cy="6.61" r="3.93"/><circle class="cls-3" cx="309.46" cy="6.61" r="3.93"/><circle class="cls-3" cx="332.33" cy="6.61" r="3.93"/><circle class="cls-3" cx="355.19" cy="6.61" r="3.93"/><rect class="cls-10" x="-0.41" y="-0.89" width="86.59" height="328.09"/><rect class="cls-11" x="85.69" y="-0.89" width="86.59" height="328.09"/><polygon class="cls-12" points="181.3 -0.39 181.3 10.95 155.21 -0.39 181.3 -0.39"/><polygon class="cls-11" points="155 -0.39 181.3 11.04 181.3 36.43 96.61 -0.39 155 -0.39"/><polygon class="cls-12" points="90.41 -0.39 96.4 -0.39 181.3 36.52 181.3 61.91 90.41 22.39 90.41 -0.39"/><polygon class="cls-11" points="96.61 -0.39 181.3 36.43 181.3 36.52 96.4 -0.39 96.61 -0.39"/><polygon class="cls-11" points="90.41 22.49 181.3 62.01 181.3 87.39 90.41 47.88 90.41 22.49"/><polygon class="cls-12" points="90.41 47.97 181.3 87.49 181.3 112.88 90.41 73.36 90.41 47.97"/><polygon class="cls-11" points="90.41 73.45 181.3 112.97 181.3 138.36 90.41 98.84 90.41 73.45"/><polygon class="cls-12" points="90.41 98.93 181.3 138.45 181.3 163.84 90.41 124.32 90.41 98.93"/><polygon class="cls-11" points="90.41 124.42 181.3 163.93 181.3 187.67 177.49 187.67 90.41 149.81 90.41 124.42"/><polygon class="cls-12" points="90.41 149.9 177.27 187.67 118.88 187.67 90.41 175.29 90.41 149.9"/><polygon class="cls-11" points="90.41 187.67 90.41 175.38 118.67 187.67 90.41 187.67"/><polygon class="cls-13" points="-0.41 -0.32 -0.41 11.02 25.68 -0.32 -0.41 -0.32"/><polygon class="cls-10" points="25.89 -0.32 -0.41 11.11 -0.41 36.5 84.28 -0.32 25.89 -0.32"/><polygon class="cls-13" points="90.48 -0.32 84.49 -0.32 -0.41 36.59 -0.41 61.98 90.48 22.47 90.48 -0.32"/><polygon class="cls-10" points="84.28 -0.32 -0.41 36.5 -0.41 36.59 84.49 -0.32 84.28 -0.32"/><polygon class="cls-10" points="90.48 22.56 -0.41 62.08 -0.41 87.47 90.48 47.95 90.48 22.56"/><polygon class="cls-13" points="90.48 48.04 -0.41 87.56 -0.41 112.95 90.48 73.43 90.48 48.04"/><polygon class="cls-10" points="90.48 73.52 -0.41 113.04 -0.41 138.43 90.48 98.91 90.48 73.52"/><polygon class="cls-13" points="90.48 99 -0.41 138.52 -0.41 163.91 90.48 124.39 90.48 99"/><polygon class="cls-10" points="90.48 124.49 -0.41 164 -0.41 187.74 3.4 187.74 90.48 149.88 90.48 124.49"/><polygon class="cls-13" points="90.48 149.97 3.62 187.74 62.01 187.74 90.48 175.36 90.48 149.97"/><polygon class="cls-10" points="90.48 187.74 90.48 175.45 62.22 187.74 90.48 187.74"/><polygon class="cls-11" points="90.47 75.77 96.45 75.77 181.35 112.69 181.35 138.08 90.47 98.56 90.47 75.77"/><polygon class="cls-12" points="90.47 98.65 181.35 138.17 181.35 163.56 90.47 124.04 90.47 98.65"/><polygon class="cls-11" points="90.47 124.14 181.35 163.65 181.35 189.04 90.47 149.53 90.47 124.14"/><polygon class="cls-12" points="90.47 149.62 181.35 189.14 181.35 214.53 90.47 175.01 90.47 149.62"/><polygon class="cls-11" points="90.47 175.1 181.35 214.62 181.35 240.01 90.47 200.49 90.47 175.1"/><polygon class="cls-12" points="90.47 200.58 181.35 240.1 181.35 263.83 177.54 263.83 90.47 225.97 90.47 200.58"/><polygon class="cls-11" points="90.47 226.06 177.33 263.83 118.94 263.83 90.47 251.45 90.47 226.06"/><polygon class="cls-12" points="90.47 263.83 90.47 251.55 118.72 263.83 90.47 263.83"/><polygon class="cls-10" points="90.48 75.77 84.49 75.77 -0.41 112.69 -0.41 138.08 90.48 98.56 90.48 75.77"/><polygon class="cls-13" points="90.48 98.65 -0.41 138.17 -0.41 163.56 90.48 124.04 90.48 98.65"/><polygon class="cls-10" points="90.48 124.14 -0.41 163.65 -0.41 189.04 90.48 149.53 90.48 124.14"/><polygon class="cls-13" points="90.48 149.62 -0.41 189.14 -0.41 214.53 90.48 175.01 90.48 149.62"/><polygon class="cls-10" points="90.48 175.1 -0.41 214.62 -0.41 240.01 90.48 200.49 90.48 175.1"/><polygon class="cls-13" points="90.48 200.58 -0.41 240.1 -0.41 263.83 3.4 263.83 90.48 225.97 90.48 200.58"/><polygon class="cls-10" points="90.48 226.06 3.62 263.83 62.01 263.83 90.48 251.45 90.48 226.06"/><polygon class="cls-13" points="90.48 263.83 90.48 251.55 62.22 263.83 90.48 263.83"/><circle class="cls-14" cx="31.16" cy="36.62" r="13.93"/><circle class="cls-14" cx="58.85" cy="36.61" r="13.93"/><circle class="cls-14" cx="118.07" cy="55.4" r="13.93"/><circle class="cls-14" cx="145.93" cy="55.4" r="13.93"/><circle class="cls-14" cx="22.95" cy="145.58" r="13.93"/><circle class="cls-14" cx="50.81" cy="145.58" r="13.93"/><circle class="cls-14" cx="124.76" cy="207.03" r="13.93"/><circle class="cls-14" cx="152.63" cy="207.03" r="13.93"/><circle class="cls-3" cx="123.91" cy="50.92" r="5"/><circle class="cls-3" cx="132.16" cy="207.13" r="5"/><circle class="cls-3" cx="151.12" cy="50.16" r="5"/><circle class="cls-3" cx="38.6" cy="36.62" r="5"/><circle class="cls-3" cx="66.14" cy="36.61" r="5"/><circle class="cls-3" cx="15.58" cy="145.58" r="5"/><circle class="cls-3" cx="43.47" cy="145.58" r="5"/><circle class="cls-3" cx="159.92" cy="206.93" r="5"/></g></g><g class="cls-15"><g class="cls-16"><path class="cls-7" d="M6.19,246h0a5.94,5.94,0,0,0-9.51,0h0a7.93,7.93,0,0,1-6.54,3.16A8,8,0,0,1-16.43,246h0a5.92,5.92,0,0,0-4.75-2.38A5.94,5.94,0,0,0-25.94,246h0a7.94,7.94,0,0,1-6.55,3.16A7.93,7.93,0,0,1-39,246h0a5.94,5.94,0,0,0-4.75-2.38A5.92,5.92,0,0,0-48.55,246h0a8,8,0,0,1-6.55,3.16A7.93,7.93,0,0,1-61.65,246h0a6,6,0,0,0-4.76-2.38A6,6,0,0,0-71.17,246h0a7.93,7.93,0,0,1-6.54,3.16A8,8,0,0,1-84.27,246h0A5.92,5.92,0,0,0-89,243.57,5.94,5.94,0,0,0-93.78,246h0a7.94,7.94,0,0,1-6.55,3.16,7.93,7.93,0,0,1-6.54-3.16h0a5.94,5.94,0,0,0-4.75-2.38,5.92,5.92,0,0,0-4.75,2.38h0a8,8,0,0,1-6.55,3.16,7.93,7.93,0,0,1-6.54-3.16h0a6,6,0,0,0-4.76-2.38A6,6,0,0,0-139,246h0a7.93,7.93,0,0,1-6.54,3.16,8,8,0,0,1-6.55-3.16h0a5.92,5.92,0,0,0-4.75-2.38,5.94,5.94,0,0,0-4.75,2.38h0a7.94,7.94,0,0,1-6.55,3.16,7.93,7.93,0,0,1-6.54-3.16h0a5.94,5.94,0,0,0-4.75-2.38,6,6,0,0,0-4.76,2.38h0a8,8,0,0,1-6.55,3.16v22.43H12.73V249.11A7.93,7.93,0,0,1,6.19,246Z"/><path class="cls-3" d="M6.19,264.64h0a5.94,5.94,0,0,0-9.51,0h0a7.93,7.93,0,0,1-6.54,3.16,8,8,0,0,1-6.55-3.16h0a5.92,5.92,0,0,0-4.75-2.38,5.94,5.94,0,0,0-4.75,2.38h0a7.94,7.94,0,0,1-6.55,3.16A7.93,7.93,0,0,1-39,264.64h0a5.94,5.94,0,0,0-4.75-2.38,5.92,5.92,0,0,0-4.75,2.38h0a8,8,0,0,1-6.55,3.16,7.93,7.93,0,0,1-6.54-3.16h0a6,6,0,0,0-4.76-2.38,6,6,0,0,0-4.75,2.38h0a7.93,7.93,0,0,1-6.54,3.16,8,8,0,0,1-6.55-3.16h0A5.92,5.92,0,0,0-89,262.26a5.94,5.94,0,0,0-4.75,2.38h0a7.94,7.94,0,0,1-6.55,3.16,7.93,7.93,0,0,1-6.54-3.16h0a5.94,5.94,0,0,0-4.75-2.38,5.92,5.92,0,0,0-4.75,2.38h0a8,8,0,0,1-6.55,3.16,7.93,7.93,0,0,1-6.54-3.16h0a6,6,0,0,0-4.76-2.38,6,6,0,0,0-4.75,2.38h0a7.93,7.93,0,0,1-6.54,3.16,8,8,0,0,1-6.55-3.16h0a5.92,5.92,0,0,0-4.75-2.38,5.94,5.94,0,0,0-4.75,2.38h0a7.94,7.94,0,0,1-6.55,3.16,7.93,7.93,0,0,1-6.54-3.16h0a5.94,5.94,0,0,0-4.75-2.38,6,6,0,0,0-4.76,2.38h0a8,8,0,0,1-6.55,3.16v22.43H12.73V267.8A7.93,7.93,0,0,1,6.19,264.64Z"/><path class="cls-7" d="M6.19,283.33h0a5.94,5.94,0,0,0-9.51,0h0a7.9,7.9,0,0,1-6.54,3.15,7.92,7.92,0,0,1-6.55-3.15h0A5.92,5.92,0,0,0-21.19,281a5.94,5.94,0,0,0-4.75,2.38h0a7.91,7.91,0,0,1-6.55,3.15A7.9,7.9,0,0,1-39,283.33h0A5.94,5.94,0,0,0-43.8,281a5.92,5.92,0,0,0-4.75,2.38h0a7.92,7.92,0,0,1-6.55,3.15,7.9,7.9,0,0,1-6.54-3.15h0A6,6,0,0,0-66.42,281a6,6,0,0,0-4.75,2.38h0a7.9,7.9,0,0,1-6.54,3.15,7.92,7.92,0,0,1-6.55-3.15h0A5.92,5.92,0,0,0-89,281a5.94,5.94,0,0,0-4.75,2.38h0a7.91,7.91,0,0,1-6.55,3.15,7.9,7.9,0,0,1-6.54-3.15h0a5.94,5.94,0,0,0-4.75-2.38,5.92,5.92,0,0,0-4.75,2.38h0a7.92,7.92,0,0,1-6.55,3.15,7.9,7.9,0,0,1-6.54-3.15h0a6,6,0,0,0-4.76-2.38,6,6,0,0,0-4.75,2.38h0a7.9,7.9,0,0,1-6.54,3.15,7.92,7.92,0,0,1-6.55-3.15h0a5.92,5.92,0,0,0-4.75-2.38,5.94,5.94,0,0,0-4.75,2.38h0a7.91,7.91,0,0,1-6.55,3.15,7.9,7.9,0,0,1-6.54-3.15h0a5.94,5.94,0,0,0-4.75-2.38,6,6,0,0,0-4.76,2.38h0a7.92,7.92,0,0,1-6.55,3.15v22.44H12.73V286.48A7.9,7.9,0,0,1,6.19,283.33Z"/><path class="cls-3" d="M6.19,302h0a5.94,5.94,0,0,0-9.51,0h0a7.9,7.9,0,0,1-6.54,3.15A7.92,7.92,0,0,1-16.43,302h0a5.92,5.92,0,0,0-4.75-2.38A5.94,5.94,0,0,0-25.94,302h0a7.91,7.91,0,0,1-6.55,3.15A7.9,7.9,0,0,1-39,302h0a5.94,5.94,0,0,0-4.75-2.38A5.92,5.92,0,0,0-48.55,302h0a7.92,7.92,0,0,1-6.55,3.15A7.9,7.9,0,0,1-61.65,302h0a6,6,0,0,0-4.76-2.38A6,6,0,0,0-71.17,302h0a7.9,7.9,0,0,1-6.54,3.15A7.92,7.92,0,0,1-84.27,302h0A5.92,5.92,0,0,0-89,299.64,5.94,5.94,0,0,0-93.78,302h0a7.91,7.91,0,0,1-6.55,3.15,7.9,7.9,0,0,1-6.54-3.15h0a5.94,5.94,0,0,0-4.75-2.38,5.92,5.92,0,0,0-4.75,2.38h0a7.92,7.92,0,0,1-6.55,3.15,7.9,7.9,0,0,1-6.54-3.15h0a6,6,0,0,0-4.76-2.38A6,6,0,0,0-139,302h0a7.9,7.9,0,0,1-6.54,3.15,7.92,7.92,0,0,1-6.55-3.15h0a5.92,5.92,0,0,0-4.75-2.38,5.94,5.94,0,0,0-4.75,2.38h0a7.91,7.91,0,0,1-6.55,3.15,7.9,7.9,0,0,1-6.54-3.15h0a5.94,5.94,0,0,0-4.75-2.38,6,6,0,0,0-4.76,2.38h0a7.92,7.92,0,0,1-6.55,3.15v22.44H12.73V305.17A7.9,7.9,0,0,1,6.19,302Z"/><path class="cls-7" d="M6.19,320.71h0a5.94,5.94,0,0,0-9.51,0h0a7.9,7.9,0,0,1-6.54,3.15,7.92,7.92,0,0,1-6.55-3.15h0a5.92,5.92,0,0,0-4.75-2.38,5.94,5.94,0,0,0-4.75,2.38h0a7.91,7.91,0,0,1-6.55,3.15A7.9,7.9,0,0,1-39,320.71h0a5.94,5.94,0,0,0-4.75-2.38,5.92,5.92,0,0,0-4.75,2.38h0a7.92,7.92,0,0,1-6.55,3.15,7.9,7.9,0,0,1-6.54-3.15h0a6,6,0,0,0-4.76-2.38,6,6,0,0,0-4.75,2.38h0a7.9,7.9,0,0,1-6.54,3.15,7.92,7.92,0,0,1-6.55-3.15h0A5.92,5.92,0,0,0-89,318.33a5.94,5.94,0,0,0-4.75,2.38h0a7.91,7.91,0,0,1-6.55,3.15,7.9,7.9,0,0,1-6.54-3.15h0a5.94,5.94,0,0,0-4.75-2.38,5.92,5.92,0,0,0-4.75,2.38h0a7.92,7.92,0,0,1-6.55,3.15,7.9,7.9,0,0,1-6.54-3.15h0a6,6,0,0,0-4.76-2.38,6,6,0,0,0-4.75,2.38h0a7.9,7.9,0,0,1-6.54,3.15,7.92,7.92,0,0,1-6.55-3.15h0a5.92,5.92,0,0,0-4.75-2.38,5.94,5.94,0,0,0-4.75,2.38h0a7.91,7.91,0,0,1-6.55,3.15,7.9,7.9,0,0,1-6.54-3.15h0a5.94,5.94,0,0,0-4.75-2.38,6,6,0,0,0-4.76,2.38h0a7.92,7.92,0,0,1-6.55,3.15V346.3H12.73V323.86A7.9,7.9,0,0,1,6.19,320.71Z"/><path class="cls-3" d="M6.19,339.4h0a5.94,5.94,0,0,0-9.51,0h0a7.9,7.9,0,0,1-6.54,3.15,7.92,7.92,0,0,1-6.55-3.15h0A5.92,5.92,0,0,0-21.19,337a5.94,5.94,0,0,0-4.75,2.38h0a7.91,7.91,0,0,1-6.55,3.15A7.9,7.9,0,0,1-39,339.4h0A5.94,5.94,0,0,0-43.8,337a5.92,5.92,0,0,0-4.75,2.38h0a7.92,7.92,0,0,1-6.55,3.15,7.9,7.9,0,0,1-6.54-3.15h0A6,6,0,0,0-66.42,337a6,6,0,0,0-4.75,2.38h0a7.9,7.9,0,0,1-6.54,3.15,7.92,7.92,0,0,1-6.55-3.15h0A5.92,5.92,0,0,0-89,337a5.94,5.94,0,0,0-4.75,2.38h0a7.91,7.91,0,0,1-6.55,3.15,7.9,7.9,0,0,1-6.54-3.15h0a5.94,5.94,0,0,0-4.75-2.38,5.92,5.92,0,0,0-4.75,2.38h0a7.92,7.92,0,0,1-6.55,3.15,7.9,7.9,0,0,1-6.54-3.15h0a6,6,0,0,0-4.76-2.38A6,6,0,0,0-139,339.4h0a7.9,7.9,0,0,1-6.54,3.15,7.92,7.92,0,0,1-6.55-3.15h0a5.92,5.92,0,0,0-4.75-2.38,5.94,5.94,0,0,0-4.75,2.38h0a7.91,7.91,0,0,1-6.55,3.15,7.9,7.9,0,0,1-6.54-3.15h0a5.94,5.94,0,0,0-4.75-2.38,6,6,0,0,0-4.76,2.38h0a7.92,7.92,0,0,1-6.55,3.15V365H12.73V342.55A7.9,7.9,0,0,1,6.19,339.4Z"/><path class="cls-7" d="M6.19,358.09h0a5.94,5.94,0,0,0-9.51,0h0a7.9,7.9,0,0,1-6.54,3.15,7.92,7.92,0,0,1-6.55-3.15h0a5.92,5.92,0,0,0-4.75-2.38,5.94,5.94,0,0,0-4.75,2.38h0a7.91,7.91,0,0,1-6.55,3.15A7.9,7.9,0,0,1-39,358.09h0a5.94,5.94,0,0,0-4.75-2.38,5.92,5.92,0,0,0-4.75,2.38h0a7.92,7.92,0,0,1-6.55,3.15,7.9,7.9,0,0,1-6.54-3.15h0a6,6,0,0,0-4.76-2.38,6,6,0,0,0-4.75,2.38h0a7.9,7.9,0,0,1-6.54,3.15,7.92,7.92,0,0,1-6.55-3.15h0A5.92,5.92,0,0,0-89,355.71a5.94,5.94,0,0,0-4.75,2.38h0a7.91,7.91,0,0,1-6.55,3.15,7.9,7.9,0,0,1-6.54-3.15h0a5.94,5.94,0,0,0-4.75-2.38,5.92,5.92,0,0,0-4.75,2.38h0a7.92,7.92,0,0,1-6.55,3.15,7.9,7.9,0,0,1-6.54-3.15h0a6,6,0,0,0-4.76-2.38,6,6,0,0,0-4.75,2.38h0a7.9,7.9,0,0,1-6.54,3.15,7.92,7.92,0,0,1-6.55-3.15h0a5.92,5.92,0,0,0-4.75-2.38,5.94,5.94,0,0,0-4.75,2.38h0a7.91,7.91,0,0,1-6.55,3.15,7.9,7.9,0,0,1-6.54-3.15h0a5.94,5.94,0,0,0-4.75-2.38,6,6,0,0,0-4.76,2.38h0a7.92,7.92,0,0,1-6.55,3.15v22.44H12.73V361.24A7.9,7.9,0,0,1,6.19,358.09Z"/><path class="cls-3" d="M6.19,376.78h0a5.94,5.94,0,0,0-9.51,0h0a7.9,7.9,0,0,1-6.54,3.15,7.92,7.92,0,0,1-6.55-3.15h0a5.92,5.92,0,0,0-4.75-2.38,5.94,5.94,0,0,0-4.75,2.38h0a7.91,7.91,0,0,1-6.55,3.15A7.9,7.9,0,0,1-39,376.78h0a5.94,5.94,0,0,0-4.75-2.38,5.92,5.92,0,0,0-4.75,2.38h0a7.92,7.92,0,0,1-6.55,3.15,7.9,7.9,0,0,1-6.54-3.15h0a6,6,0,0,0-4.76-2.38,6,6,0,0,0-4.75,2.38h0a7.9,7.9,0,0,1-6.54,3.15,7.92,7.92,0,0,1-6.55-3.15h0A5.92,5.92,0,0,0-89,374.4a5.94,5.94,0,0,0-4.75,2.38h0a7.91,7.91,0,0,1-6.55,3.15,7.9,7.9,0,0,1-6.54-3.15h0a5.94,5.94,0,0,0-4.75-2.38,5.92,5.92,0,0,0-4.75,2.38h0a7.92,7.92,0,0,1-6.55,3.15,7.9,7.9,0,0,1-6.54-3.15h0a6,6,0,0,0-4.76-2.38,6,6,0,0,0-4.75,2.38h0a7.9,7.9,0,0,1-6.54,3.15,7.92,7.92,0,0,1-6.55-3.15h0a5.92,5.92,0,0,0-4.75-2.38,5.94,5.94,0,0,0-4.75,2.38h0a7.91,7.91,0,0,1-6.55,3.15,7.9,7.9,0,0,1-6.54-3.15h0a5.94,5.94,0,0,0-4.75-2.38,6,6,0,0,0-4.76,2.38h0a7.92,7.92,0,0,1-6.55,3.15v22.44H12.73V379.93A7.9,7.9,0,0,1,6.19,376.78Z"/><path class="cls-7" d="M6.19,395.47h0a5.94,5.94,0,0,0-9.51,0h0a7.9,7.9,0,0,1-6.54,3.15,7.92,7.92,0,0,1-6.55-3.15h0a5.92,5.92,0,0,0-4.75-2.38,5.94,5.94,0,0,0-4.75,2.38h0a7.91,7.91,0,0,1-6.55,3.15A7.9,7.9,0,0,1-39,395.47h0a5.94,5.94,0,0,0-4.75-2.38,5.92,5.92,0,0,0-4.75,2.38h0a7.92,7.92,0,0,1-6.55,3.15,7.9,7.9,0,0,1-6.54-3.15h0a6,6,0,0,0-4.76-2.38,6,6,0,0,0-4.75,2.38h0a7.9,7.9,0,0,1-6.54,3.15,7.92,7.92,0,0,1-6.55-3.15h0A5.92,5.92,0,0,0-89,393.09a5.94,5.94,0,0,0-4.75,2.38h0a7.91,7.91,0,0,1-6.55,3.15,7.9,7.9,0,0,1-6.54-3.15h0a5.94,5.94,0,0,0-4.75-2.38,5.92,5.92,0,0,0-4.75,2.38h0a7.92,7.92,0,0,1-6.55,3.15,7.9,7.9,0,0,1-6.54-3.15h0a6,6,0,0,0-4.76-2.38,6,6,0,0,0-4.75,2.38h0a7.9,7.9,0,0,1-6.54,3.15,7.92,7.92,0,0,1-6.55-3.15h0a5.92,5.92,0,0,0-4.75-2.38,5.94,5.94,0,0,0-4.75,2.38h0a7.91,7.91,0,0,1-6.55,3.15,7.9,7.9,0,0,1-6.54-3.15h0a5.94,5.94,0,0,0-4.75-2.38,6,6,0,0,0-4.76,2.38h0a7.92,7.92,0,0,1-6.55,3.15v22.44H12.73V398.62A7.9,7.9,0,0,1,6.19,395.47Z"/><path class="cls-3" d="M6.19,414.16h0a5.94,5.94,0,0,0-9.51,0h0a7.9,7.9,0,0,1-6.54,3.15,7.92,7.92,0,0,1-6.55-3.15h0a5.89,5.89,0,0,0-4.75-2.38,5.91,5.91,0,0,0-4.75,2.38h0a7.91,7.91,0,0,1-6.55,3.15A7.9,7.9,0,0,1-39,414.16h0a5.91,5.91,0,0,0-4.75-2.38,5.89,5.89,0,0,0-4.75,2.38h0a7.92,7.92,0,0,1-6.55,3.15,7.9,7.9,0,0,1-6.54-3.15h0a5.93,5.93,0,0,0-4.76-2.38,5.92,5.92,0,0,0-4.75,2.38h0a7.9,7.9,0,0,1-6.54,3.15,7.92,7.92,0,0,1-6.55-3.15h0A5.89,5.89,0,0,0-89,411.78a5.91,5.91,0,0,0-4.75,2.38h0a7.91,7.91,0,0,1-6.55,3.15,7.9,7.9,0,0,1-6.54-3.15h0a5.91,5.91,0,0,0-4.75-2.38,5.89,5.89,0,0,0-4.75,2.38h0a7.92,7.92,0,0,1-6.55,3.15,7.9,7.9,0,0,1-6.54-3.15h0a5.93,5.93,0,0,0-4.76-2.38,5.92,5.92,0,0,0-4.75,2.38h0a7.9,7.9,0,0,1-6.54,3.15,7.92,7.92,0,0,1-6.55-3.15h0a5.89,5.89,0,0,0-4.75-2.38,5.91,5.91,0,0,0-4.75,2.38h0a7.91,7.91,0,0,1-6.55,3.15,7.9,7.9,0,0,1-6.54-3.15h0a5.91,5.91,0,0,0-4.75-2.38,5.93,5.93,0,0,0-4.76,2.38h0a7.92,7.92,0,0,1-6.55,3.15v22.44H12.73V417.31A7.9,7.9,0,0,1,6.19,414.16Z"/><path class="cls-7" d="M6.19,432.85h0a5.94,5.94,0,0,0-9.51,0h0A7.9,7.9,0,0,1-9.88,436a7.92,7.92,0,0,1-6.55-3.15h0a5.89,5.89,0,0,0-4.75-2.38,5.91,5.91,0,0,0-4.75,2.38h0A7.91,7.91,0,0,1-32.5,436,7.9,7.9,0,0,1-39,432.85h0a5.91,5.91,0,0,0-4.75-2.38,5.89,5.89,0,0,0-4.75,2.38h0A7.92,7.92,0,0,1-55.11,436a7.9,7.9,0,0,1-6.54-3.15h0a5.93,5.93,0,0,0-4.76-2.38,5.92,5.92,0,0,0-4.75,2.38h0A7.9,7.9,0,0,1-77.72,436a7.92,7.92,0,0,1-6.55-3.15h0A5.89,5.89,0,0,0-89,430.47a5.91,5.91,0,0,0-4.75,2.38h0a7.91,7.91,0,0,1-6.55,3.15,7.9,7.9,0,0,1-6.54-3.15h0a5.91,5.91,0,0,0-4.75-2.38,5.89,5.89,0,0,0-4.75,2.38h0a7.92,7.92,0,0,1-6.55,3.15,7.9,7.9,0,0,1-6.54-3.15h0a5.93,5.93,0,0,0-4.76-2.38,5.92,5.92,0,0,0-4.75,2.38h0a7.9,7.9,0,0,1-6.54,3.15,7.92,7.92,0,0,1-6.55-3.15h0a5.89,5.89,0,0,0-4.75-2.38,5.91,5.91,0,0,0-4.75,2.38h0a7.91,7.91,0,0,1-6.55,3.15,7.9,7.9,0,0,1-6.54-3.15h0a5.91,5.91,0,0,0-4.75-2.38,5.93,5.93,0,0,0-4.76,2.38h0a7.92,7.92,0,0,1-6.55,3.15v22.44H12.73V436A7.9,7.9,0,0,1,6.19,432.85Z"/><path class="cls-3" d="M6.19,451.54h0a5.94,5.94,0,0,0-9.51,0h0a7.9,7.9,0,0,1-6.54,3.15,7.92,7.92,0,0,1-6.55-3.15h0a5.89,5.89,0,0,0-4.75-2.38,5.91,5.91,0,0,0-4.75,2.38h0a7.91,7.91,0,0,1-6.55,3.15A7.9,7.9,0,0,1-39,451.54h0a5.91,5.91,0,0,0-4.75-2.38,5.89,5.89,0,0,0-4.75,2.38h0a7.92,7.92,0,0,1-6.55,3.15,7.9,7.9,0,0,1-6.54-3.15h0a5.93,5.93,0,0,0-4.76-2.38,5.92,5.92,0,0,0-4.75,2.38h0a7.9,7.9,0,0,1-6.54,3.15,7.92,7.92,0,0,1-6.55-3.15h0A5.89,5.89,0,0,0-89,449.16a5.91,5.91,0,0,0-4.75,2.38h0a7.91,7.91,0,0,1-6.55,3.15,7.9,7.9,0,0,1-6.54-3.15h0a5.91,5.91,0,0,0-4.75-2.38,5.89,5.89,0,0,0-4.75,2.38h0a7.92,7.92,0,0,1-6.55,3.15,7.9,7.9,0,0,1-6.54-3.15h0a5.93,5.93,0,0,0-4.76-2.38,5.92,5.92,0,0,0-4.75,2.38h0a7.9,7.9,0,0,1-6.54,3.15,7.92,7.92,0,0,1-6.55-3.15h0a5.89,5.89,0,0,0-4.75-2.38,5.91,5.91,0,0,0-4.75,2.38h0a7.91,7.91,0,0,1-6.55,3.15,7.9,7.9,0,0,1-6.54-3.15h0a5.91,5.91,0,0,0-4.75-2.38,5.93,5.93,0,0,0-4.76,2.38h0a7.92,7.92,0,0,1-6.55,3.15v22.44H12.73V454.69A7.9,7.9,0,0,1,6.19,451.54Z"/><path class="cls-7" d="M6.19,470.23h0a5.94,5.94,0,0,0-9.51,0h0a7.9,7.9,0,0,1-6.54,3.15,7.92,7.92,0,0,1-6.55-3.15h0a5.89,5.89,0,0,0-4.75-2.38,5.91,5.91,0,0,0-4.75,2.38h0a7.91,7.91,0,0,1-6.55,3.15A7.9,7.9,0,0,1-39,470.23h0a5.91,5.91,0,0,0-4.75-2.38,5.89,5.89,0,0,0-4.75,2.38h0a7.92,7.92,0,0,1-6.55,3.15,7.9,7.9,0,0,1-6.54-3.15h0a5.93,5.93,0,0,0-4.76-2.38,5.92,5.92,0,0,0-4.75,2.38h0a7.9,7.9,0,0,1-6.54,3.15,7.92,7.92,0,0,1-6.55-3.15h0A5.89,5.89,0,0,0-89,467.85a5.91,5.91,0,0,0-4.75,2.38h0a7.91,7.91,0,0,1-6.55,3.15,7.9,7.9,0,0,1-6.54-3.15h0a5.91,5.91,0,0,0-4.75-2.38,5.89,5.89,0,0,0-4.75,2.38h0a7.92,7.92,0,0,1-6.55,3.15,7.9,7.9,0,0,1-6.54-3.15h0a5.93,5.93,0,0,0-4.76-2.38,5.92,5.92,0,0,0-4.75,2.38h0a7.9,7.9,0,0,1-6.54,3.15,7.92,7.92,0,0,1-6.55-3.15h0a5.89,5.89,0,0,0-4.75-2.38,5.91,5.91,0,0,0-4.75,2.38h0a7.91,7.91,0,0,1-6.55,3.15,7.9,7.9,0,0,1-6.54-3.15h0a5.91,5.91,0,0,0-4.75-2.38,5.93,5.93,0,0,0-4.76,2.38h0a7.92,7.92,0,0,1-6.55,3.15v22.43H12.73V473.38A7.9,7.9,0,0,1,6.19,470.23Z"/><path class="cls-3" d="M6.19,488.92h0a5.93,5.93,0,0,0-9.51,0h0a7.9,7.9,0,0,1-6.54,3.15,7.92,7.92,0,0,1-6.55-3.15h0a5.9,5.9,0,0,0-4.75-2.39,5.92,5.92,0,0,0-4.75,2.39h0a7.91,7.91,0,0,1-6.55,3.15A7.9,7.9,0,0,1-39,488.92h0a5.92,5.92,0,0,0-4.75-2.39,5.9,5.9,0,0,0-4.75,2.39h0a7.92,7.92,0,0,1-6.55,3.15,7.9,7.9,0,0,1-6.54-3.15h0a5.94,5.94,0,0,0-4.76-2.39,5.93,5.93,0,0,0-4.75,2.39h0a7.9,7.9,0,0,1-6.54,3.15,7.92,7.92,0,0,1-6.55-3.15h0A5.9,5.9,0,0,0-89,486.53a5.92,5.92,0,0,0-4.75,2.39h0a7.91,7.91,0,0,1-6.55,3.15,7.9,7.9,0,0,1-6.54-3.15h0a5.92,5.92,0,0,0-4.75-2.39,5.9,5.9,0,0,0-4.75,2.39h0a7.92,7.92,0,0,1-6.55,3.15,7.9,7.9,0,0,1-6.54-3.15h0a5.94,5.94,0,0,0-4.76-2.39,5.93,5.93,0,0,0-4.75,2.39h0a7.9,7.9,0,0,1-6.54,3.15,7.92,7.92,0,0,1-6.55-3.15h0a5.9,5.9,0,0,0-4.75-2.39,5.92,5.92,0,0,0-4.75,2.39h0a7.91,7.91,0,0,1-6.55,3.15,7.9,7.9,0,0,1-6.54-3.15h0a5.92,5.92,0,0,0-4.75-2.39,5.94,5.94,0,0,0-4.76,2.39h0a7.92,7.92,0,0,1-6.55,3.15V514.5H12.73V492.07A7.9,7.9,0,0,1,6.19,488.92Z"/><rect class="cls-17" x="0.04" y="250.74" width="181.25" height="253.89"/><rect class="cls-18" x="181.14" y="250.74" width="180.47" height="253.89"/><g class="cls-19"><rect class="cls-9" x="-95.42" y="215.16" width="432.34" height="5.93" transform="translate(-118.87 149.27) rotate(-45)"/><rect class="cls-9" x="-70.82" y="239.76" width="432.34" height="5.93" transform="translate(-129.06 173.87) rotate(-45)"/><rect class="cls-9" x="-46.23" y="264.36" width="432.34" height="5.93" transform="translate(-139.25 198.47) rotate(-45)"/><rect class="cls-9" x="-21.63" y="288.95" width="432.34" height="5.93" transform="translate(-149.44 223.06) rotate(-45)"/><rect class="cls-9" x="2.97" y="313.55" width="432.34" height="5.93" transform="translate(-159.62 247.66) rotate(-45)"/><rect class="cls-9" x="27.57" y="338.15" width="432.34" height="5.93" transform="translate(-169.81 272.26) rotate(-45)"/><rect class="cls-9" x="52.17" y="362.75" width="432.34" height="5.93" transform="translate(-180 296.86) rotate(-45)"/><rect class="cls-9" x="76.76" y="387.34" width="432.34" height="5.93" transform="translate(-190.19 321.45) rotate(-45)"/><rect class="cls-9" x="101.36" y="411.94" width="432.34" height="5.93" transform="translate(-200.38 346.05) rotate(-45)"/><rect class="cls-9" x="125.96" y="436.54" width="432.34" height="5.93" transform="translate(-210.57 370.65) rotate(-45)"/><rect class="cls-9" x="150.56" y="461.14" width="432.34" height="5.93" transform="translate(-220.76 395.25) rotate(-45)"/><rect class="cls-9" x="175.15" y="485.74" width="432.34" height="5.93" transform="translate(-230.94 419.85) rotate(-45)"/><rect class="cls-9" x="199.75" y="510.33" width="432.34" height="5.93" transform="translate(-241.13 444.44) rotate(-45)"/><rect class="cls-9" x="198.26" y="213.54" width="432.34" height="5.93" transform="translate(274.48 -229.64) rotate(45)"/><rect class="cls-9" x="173.67" y="238.14" width="432.34" height="5.93" transform="translate(284.66 -205.04) rotate(45)"/><rect class="cls-9" x="149.07" y="262.73" width="432.34" height="5.93" transform="translate(294.85 -180.44) rotate(45)"/><rect class="cls-20" x="124.47" y="287.33" width="432.34" height="5.93" transform="translate(305.04 -155.85) rotate(45)"/><rect class="cls-9" x="99.87" y="311.93" width="432.34" height="5.93" transform="translate(315.23 -131.25) rotate(45)"/><rect class="cls-20" x="75.28" y="336.53" width="432.34" height="5.93" transform="translate(325.42 -106.65) rotate(45)"/><rect class="cls-9" x="50.68" y="361.13" width="432.34" height="5.93" transform="translate(335.61 -82.05) rotate(45)"/><rect class="cls-20" x="26.08" y="385.72" width="432.34" height="5.93" transform="translate(345.8 -57.46) rotate(45)"/><rect class="cls-9" x="1.48" y="410.32" width="432.34" height="5.93" transform="translate(355.99 -32.86) rotate(45)"/><rect class="cls-20" x="-23.11" y="434.92" width="432.34" height="5.93" transform="translate(366.17 -8.26) rotate(45)"/><rect class="cls-9" x="-47.71" y="459.52" width="432.34" height="5.93" transform="translate(376.36 16.34) rotate(45)"/><rect class="cls-9" x="-72.31" y="484.11" width="432.34" height="5.93" transform="translate(386.55 40.94) rotate(45)"/><rect class="cls-9" x="-96.91" y="508.71" width="432.34" height="5.93" transform="translate(396.74 65.53) rotate(45)"/></g><rect class="cls-21" x="180.94" y="250.74" width="180.55" height="44.43"/><rect class="cls-3" x="180.94" y="459.85" width="180.55" height="44.43"/><path class="cls-22" d="M143.2,345.4l-9.34-5.75L160,290.27l15.51,9.55Zm-8.57,3.36a9.08,9.08,0,0,1,3,12.45,9,9,0,0,1-12.4,2.86,8.85,8.85,0,0,1-2.82-12.23A9,9,0,0,1,134.63,348.76Z"/><path class="cls-22" d="M29.91,373.48l-9.64,5.23L1.91,349.51l1.76-32.79Zm-1.36,9.11a9,9,0,1,1,8.57,15.81,9,9,0,0,1-8.57-15.81Z"/><path class="cls-23" d="M213.74,260.26a8.46,8.46,0,0,0-8.45,8.16h0a8.47,8.47,0,0,0-16.93.31,6.68,6.68,0,0,0,0,.78h0s0,.05,0,.07a7.86,7.86,0,0,0,.16,1c2.22,11,16.74,17.71,16.74,17.71s14.52-6.75,16.74-17.71a8.17,8.17,0,0,0,.16-1,.64.64,0,0,0,0-.07h0c0-.25,0-.52,0-.78A8.48,8.48,0,0,0,213.74,260.26Z"/><path class="cls-23" d="M310,269.51h0c0-.25,0-.52,0-.78a8.47,8.47,0,0,0-16.93-.31h0a8.47,8.47,0,0,0-16.93.31c0,.26,0,.53,0,.78h0s0,.05,0,.07a8.19,8.19,0,0,0,.17,1c2.21,11,16.74,17.71,16.74,17.71s14.52-6.75,16.73-17.71a7.86,7.86,0,0,0,.17-1S310,269.54,310,269.51Z"/><path class="cls-3" d="M257.67,260.26a8.48,8.48,0,0,0-8.46,8.16h0a8.47,8.47,0,0,0-16.93.31c0,.26,0,.53,0,.78h0a.15.15,0,0,0,0,.07,7.86,7.86,0,0,0,.16,1c2.22,11,16.74,17.71,16.74,17.71s14.52-6.75,16.74-17.71a7.86,7.86,0,0,0,.16-1s0,0,0-.07h0a6.68,6.68,0,0,0,0-.78A8.47,8.47,0,0,0,257.67,260.26Z"/><path class="cls-3" d="M354,269.51h0c0-.25,0-.52,0-.78a8.47,8.47,0,0,0-16.93-.31h0a8.47,8.47,0,0,0-16.93.31,6.68,6.68,0,0,0,0,.78h0s0,.05,0,.07a8.17,8.17,0,0,0,.16,1c2.22,11,16.74,17.71,16.74,17.71s14.52-6.75,16.74-17.71a8.17,8.17,0,0,0,.16-1A.15.15,0,0,0,354,269.51Z"/><path class="cls-21" d="M214.1,467.6a8.47,8.47,0,0,0-8.46,8.17h0a8.47,8.47,0,0,0-16.93.31c0,.26,0,.52,0,.78h0s0,0,0,.07c0,.33.09.66.16,1,2.22,11,16.74,17.71,16.74,17.71s14.53-6.75,16.74-17.71a8.54,8.54,0,0,0,.17-1s0-.05,0-.07h0c0-.26,0-.52,0-.78A8.48,8.48,0,0,0,214.1,467.6Z"/><path class="cls-21" d="M310.39,476.86h0a6.79,6.79,0,0,0,0-.78,8.47,8.47,0,0,0-16.93-.31h0a8.47,8.47,0,0,0-16.93.31c0,.26,0,.52,0,.78h0a.15.15,0,0,1,0,.07c0,.33.1.66.17,1,2.22,11,16.74,17.71,16.74,17.71s14.52-6.75,16.74-17.71a8.5,8.5,0,0,0,.16-1S310.39,476.88,310.39,476.86Z"/><path class="cls-23" d="M258,467.6a8.46,8.46,0,0,0-8.45,8.17h0a8.47,8.47,0,0,0-16.93.31,6.79,6.79,0,0,0,0,.78h0s0,0,0,.07a8.5,8.5,0,0,0,.16,1c2.22,11,16.74,17.71,16.74,17.71s14.52-6.75,16.74-17.71a8.5,8.5,0,0,0,.16-1,.2.2,0,0,0,0-.07h0c0-.26,0-.52,0-.78A8.48,8.48,0,0,0,258,467.6Z"/><path class="cls-23" d="M354.32,476.86h0c0-.26,0-.52,0-.78a8.47,8.47,0,0,0-16.93-.31h0a8.47,8.47,0,0,0-16.93.31,6.79,6.79,0,0,0,0,.78h0s0,0,0,.07c0,.33.09.66.16,1,2.22,11,16.74,17.71,16.74,17.71s14.52-6.75,16.74-17.71a8.54,8.54,0,0,0,.17-1A.15.15,0,0,1,354.32,476.86Z"/><rect class="cls-24" x="0.04" y="250.74" width="5.76" height="253.19"/><rect class="cls-24" x="12.57" y="250.74" width="5.76" height="253.19"/><rect class="cls-24" x="25.11" y="250.74" width="5.76" height="253.19"/><rect class="cls-24" x="37.64" y="250.74" width="5.76" height="253.19"/><rect class="cls-24" x="50.18" y="250.74" width="5.76" height="253.19"/><rect class="cls-24" x="62.71" y="250.74" width="5.76" height="253.19"/><rect class="cls-24" x="75.25" y="250.74" width="5.76" height="253.19"/><rect class="cls-24" x="87.78" y="250.74" width="5.76" height="253.19"/><rect class="cls-24" x="100.32" y="250.74" width="5.76" height="253.19"/><rect class="cls-24" x="112.85" y="250.74" width="5.76" height="253.19"/><rect class="cls-24" x="125.39" y="250.74" width="5.76" height="253.19"/><rect class="cls-24" x="137.92" y="250.74" width="5.76" height="253.19"/><rect class="cls-24" x="150.46" y="250.74" width="5.76" height="253.19"/><rect class="cls-24" x="162.99" y="250.74" width="5.76" height="253.19"/><rect class="cls-24" x="175.53" y="250.74" width="5.76" height="253.19"/><path class="cls-22" d="M62.24,304.33l-8.46,7-38.29-40.7,14-11.6Zm.41,9.2a9.07,9.07,0,0,1,12.74,1.22A9,9,0,0,1,74.1,327.4a8.86,8.86,0,0,1-12.5-1.28A9,9,0,0,1,62.65,313.53Z"/><rect class="cls-24" x="50.11" y="258.85" width="5.83" height="95.35"/><path class="cls-25" d="M37.63,382.8a9.09,9.09,0,0,1,2.9,12.47,9,9,0,0,1-12.41,2.8,8.85,8.85,0,0,1-2.76-12.25A9,9,0,0,1,37.63,382.8Z"/><path class="cls-25" d="M73.11,312.66A9.07,9.07,0,0,1,76,325.12a9,9,0,0,1-12.41,2.8,8.87,8.87,0,0,1-2.76-12.25A9,9,0,0,1,73.11,312.66Z"/><path class="cls-25" d="M133.07,348a9.07,9.07,0,0,1,5.34,11.62,9,9,0,0,1-11.59,5.24,8.85,8.85,0,0,1-5.17-11.44A9,9,0,0,1,133.07,348Z"/><rect class="cls-24" x="150.46" y="364.99" width="5.76" height="114.99"/></g></g></g><rect class="cls-21" y="247.63" width="360" height="210.82"/><rect class="cls-18" y="323.32" width="360" height="136.93"/><rect class="cls-3" width="360" height="112.88"/><circle class="cls-26" cx="341.27" cy="60.51" r="4.09"/><circle class="cls-26" cx="299.56" cy="68.7" r="4.09"/><circle class="cls-26" cx="41.66" cy="37.98" r="4.09"/><circle class="cls-27" cx="270.52" cy="47.6" r="4.09"/><circle class="cls-23" cx="305.25" cy="34.5" r="4.09"/><circle class="cls-28" cx="18.72" cy="66.15" r="4.09"/><circle class="cls-23" cx="52.36" cy="66.15" r="4.09"/><circle class="cls-29" cx="320" cy="353.85" r="10"/><circle class="cls-29" cx="320" cy="390.85" r="10"/><circle class="cls-29" cx="320" cy="427.85" r="10"/><circle class="cls-29" cx="285" cy="353.85" r="10"/><circle class="cls-29" cx="285" cy="390.85" r="10"/><circle class="cls-29" cx="285" cy="427.85" r="10"/><circle class="cls-29" cx="250" cy="353.85" r="10"/><circle class="cls-29" cx="250" cy="390.85" r="10"/><circle class="cls-29" cx="250" cy="427.85" r="10"/><circle class="cls-29" cx="215" cy="353.85" r="10"/><circle class="cls-29" cx="215" cy="390.85" r="10"/><circle class="cls-29" cx="215" cy="427.85" r="10"/><circle class="cls-29" cx="180" cy="353.85" r="10"/><circle class="cls-29" cx="180" cy="390.85" r="10"/><circle class="cls-29" cx="180" cy="427.85" r="10"/><circle class="cls-29" cx="145" cy="353.85" r="10"/><circle class="cls-29" cx="145" cy="390.85" r="10"/><circle class="cls-29" cx="145" cy="427.85" r="10"/><circle class="cls-29" cx="110" cy="353.85" r="10"/><circle class="cls-29" cx="110" cy="390.85" r="10"/><circle class="cls-29" cx="110" cy="427.85" r="10"/><circle class="cls-29" cx="75" cy="353.85" r="10"/><circle class="cls-29" cx="75" cy="390.85" r="10"/><circle class="cls-29" cx="75" cy="427.85" r="10"/><circle class="cls-29" cx="40" cy="353.85" r="10"/><circle class="cls-29" cx="40" cy="390.85" r="10"/><circle class="cls-29" cx="40" cy="427.85" r="10"/></svg>